<svg width="370" height="239" viewBox="0 0 370 239" fill="none" xmlns="http://www.w3.org/2000/svg">
<rect width="370" height="73" rx="36.5" fill="white"/>
<path d="M113.016 41.16C109.688 41.16 107.48 38.984 107.48 35.64C107.48 32.296 109.688 30.12 113.016 30.12C116.04 30.12 118.152 31.72 118.152 34.28V34.504H116.248V34.28C116.248 32.648 115.208 31.768 113.032 31.768C110.52 31.768 109.304 32.968 109.304 35.64C109.304 38.312 110.52 39.496 113.032 39.496C115.208 39.496 116.248 38.632 116.248 36.984V36.776H118.152V36.984C118.152 39.56 116.056 41.16 113.016 41.16ZM124.689 41.16C121.329 41.16 119.105 38.984 119.105 35.64C119.105 32.296 121.329 30.12 124.689 30.12C128.081 30.12 130.289 32.296 130.289 35.64C130.289 38.984 128.081 41.16 124.689 41.16ZM124.689 39.496C127.233 39.496 128.465 38.312 128.465 35.64C128.465 32.968 127.233 31.768 124.689 31.768C122.145 31.768 120.929 32.968 120.929 35.64C120.929 38.312 122.145 39.496 124.689 39.496ZM133.294 41H131.566V30.28H133.422L138.222 36.552L139.614 38.552H139.742L139.662 36.616V30.28H141.39V41H139.534L134.702 34.744L133.358 32.856H133.23L133.294 34.712V41ZM148.316 41H146.604V31.832H142.38V30.28H152.524V31.832H148.316V41ZM155.262 41H153.534V30.28H155.262V41ZM158.591 41H156.863V30.28H158.719L163.519 36.552L164.911 38.552H165.039L164.959 36.616V30.28H166.687V41H164.831L159.999 34.744L158.655 32.856H158.527L158.591 34.712V41ZM173.244 41.16C170.044 41.16 168.22 39.464 168.22 36.552V30.28H169.932V36.44C169.932 38.6 170.892 39.496 173.244 39.496C175.596 39.496 176.556 38.6 176.556 36.44V30.28H178.284V36.552C178.284 39.464 176.46 41.16 173.244 41.16ZM188.392 41H179.816V30.28H188.392V31.832H181.544V34.84H188.152V36.376H181.544V39.448H188.392V41ZM197.272 41H194.728L191.896 30.28H193.816L195.56 37.064L196.04 39.336H196.168L196.744 37.064L198.904 30.28H201.416L203.72 37.064L204.328 39.336H204.456L204.904 37.064L206.504 30.28H208.392L205.704 41H203.16L201 34.76L200.216 32.008H200.072L199.304 34.76L197.272 41ZM211.137 41H209.409V30.28H211.137V41ZM218.066 41H216.354V31.832H212.13V30.28H222.274V31.832H218.066V41ZM225.012 41H223.284V30.28H225.012V34.824H231.316V30.28H233.028V41H231.316V36.376H225.012V41ZM242.306 41.16C239.154 41.16 237.058 38.984 237.058 35.64C237.058 32.296 239.314 30.12 242.738 30.12C245.778 30.12 247.89 31.656 247.89 34.136V34.264H245.986V34.136C245.986 32.6 244.914 31.768 242.69 31.768C240.114 31.768 238.882 32.968 238.882 35.64C238.882 38.312 240.098 39.496 242.61 39.496C245.17 39.496 246.178 38.792 246.178 36.984V36.84H242.21V35.528H247.89V41H246.322V38.68H246.21C245.762 40.248 244.402 41.16 242.306 41.16ZM254.611 41.16C251.251 41.16 249.027 38.984 249.027 35.64C249.027 32.296 251.251 30.12 254.611 30.12C258.003 30.12 260.211 32.296 260.211 35.64C260.211 38.984 258.003 41.16 254.611 41.16ZM254.611 39.496C257.155 39.496 258.387 38.312 258.387 35.64C258.387 32.968 257.155 31.768 254.611 31.768C252.067 31.768 250.851 32.968 250.851 35.64C250.851 38.312 252.067 39.496 254.611 39.496ZM266.752 41.16C263.392 41.16 261.168 38.984 261.168 35.64C261.168 32.296 263.392 30.12 266.752 30.12C270.144 30.12 272.352 32.296 272.352 35.64C272.352 38.984 270.144 41.16 266.752 41.16ZM266.752 39.496C269.296 39.496 270.528 38.312 270.528 35.64C270.528 32.968 269.296 31.768 266.752 31.768C264.208 31.768 262.992 32.968 262.992 35.64C262.992 38.312 264.208 39.496 266.752 39.496ZM278.556 41.16C275.404 41.16 273.308 38.984 273.308 35.64C273.308 32.296 275.564 30.12 278.988 30.12C282.028 30.12 284.14 31.656 284.14 34.136V34.264H282.236V34.136C282.236 32.6 281.164 31.768 278.94 31.768C276.364 31.768 275.132 32.968 275.132 35.64C275.132 38.312 276.348 39.496 278.86 39.496C281.42 39.496 282.428 38.792 282.428 36.984V36.84H278.46V35.528H284.14V41H282.572V38.68H282.46C282.012 40.248 280.652 41.16 278.556 41.16ZM293.933 41H285.597V30.28H287.325V39.448H293.933V41ZM303.626 41H295.05V30.28H303.626V31.832H296.778V34.84H303.386V36.376H296.778V39.448H303.626V41Z" fill="black"/>
<path d="M94.0741 33.3886H93.0001V33.3333H81.0001V38.6666H88.5354C87.4361 41.7713 84.4821 44 81.0001 44C76.5821 44 73.0001 40.418 73.0001 36C73.0001 31.582 76.5821 28 81.0001 28C83.0394 28 84.8947 28.7693 86.3074 30.026L90.0787 26.2546C87.6974 24.0353 84.5121 22.6666 81.0001 22.6666C73.6367 22.6666 67.6667 28.6366 67.6667 36C67.6667 43.3633 73.6367 49.3333 81.0001 49.3333C88.3634 49.3333 94.3334 43.3633 94.3334 36C94.3334 35.106 94.2414 34.2333 94.0741 33.3886Z" fill="#FFC107"/>
<path d="M69.2041 29.794L73.5848 33.0066C74.7701 30.072 77.6408 28 81.0001 28C83.0394 28 84.8948 28.7693 86.3074 30.026L90.0788 26.2546C87.6974 24.0353 84.5121 22.6666 81.0001 22.6666C75.8788 22.6666 71.4374 25.558 69.2041 29.794Z" fill="#FF3D00"/>
<path d="M80.9999 49.3333C84.4439 49.3333 87.5732 48.0153 89.9392 45.872L85.8125 42.38C84.4739 43.394 82.8099 44 80.9999 44C77.5319 44 74.5872 41.7886 73.4779 38.7026L69.1299 42.0526C71.3365 46.3706 75.8179 49.3333 80.9999 49.3333Z" fill="#4CAF50"/>
<path d="M94.074 33.3887H93V33.3334H81V38.6667H88.5353C88.0073 40.158 87.048 41.444 85.8107 42.3807L85.8127 42.3794L89.9393 45.8714C89.6473 46.1367 94.3333 42.6667 94.3333 36C94.3333 35.106 94.2413 34.2334 94.074 33.3887Z" fill="#1976D2"/>
<rect y="83" width="370" height="73" rx="36.5" fill="white"/>
<path d="M121.016 124.16C117.688 124.16 115.48 121.984 115.48 118.64C115.48 115.296 117.688 113.12 121.016 113.12C124.04 113.12 126.152 114.72 126.152 117.28V117.504H124.248V117.28C124.248 115.648 123.208 114.768 121.032 114.768C118.52 114.768 117.304 115.968 117.304 118.64C117.304 121.312 118.52 122.496 121.032 122.496C123.208 122.496 124.248 121.632 124.248 119.984V119.776H126.152V119.984C126.152 122.56 124.056 124.16 121.016 124.16ZM132.689 124.16C129.329 124.16 127.105 121.984 127.105 118.64C127.105 115.296 129.329 113.12 132.689 113.12C136.081 113.12 138.289 115.296 138.289 118.64C138.289 121.984 136.081 124.16 132.689 124.16ZM132.689 122.496C135.233 122.496 136.465 121.312 136.465 118.64C136.465 115.968 135.233 114.768 132.689 114.768C130.145 114.768 128.929 115.968 128.929 118.64C128.929 121.312 130.145 122.496 132.689 122.496ZM141.294 124H139.566V113.28H141.422L146.222 119.552L147.614 121.552H147.742L147.662 119.616V113.28H149.39V124H147.534L142.702 117.744L141.358 115.856H141.23L141.294 117.712V124ZM156.316 124H154.604V114.832H150.38V113.28H160.524V114.832H156.316V124ZM163.262 124H161.534V113.28H163.262V124ZM166.591 124H164.863V113.28H166.719L171.519 119.552L172.911 121.552H173.039L172.959 119.616V113.28H174.687V124H172.831L167.999 117.744L166.655 115.856H166.527L166.591 117.712V124ZM181.244 124.16C178.044 124.16 176.22 122.464 176.22 119.552V113.28H177.932V119.44C177.932 121.6 178.892 122.496 181.244 122.496C183.596 122.496 184.556 121.6 184.556 119.44V113.28H186.284V119.552C186.284 122.464 184.46 124.16 181.244 124.16ZM196.392 124H187.816V113.28H196.392V114.832H189.544V117.84H196.152V119.376H189.544V122.448H196.392V124ZM205.272 124H202.728L199.896 113.28H201.816L203.56 120.064L204.04 122.336H204.168L204.744 120.064L206.904 113.28H209.416L211.72 120.064L212.328 122.336H212.456L212.904 120.064L214.504 113.28H216.392L213.704 124H211.16L209 117.76L208.216 115.008H208.072L207.304 117.76L205.272 124ZM219.137 124H217.409V113.28H219.137V124ZM226.066 124H224.354V114.832H220.13V113.28H230.274V114.832H226.066V124ZM233.012 124H231.284V113.28H233.012V117.824H239.316V113.28H241.028V124H239.316V119.376H233.012V124ZM246.498 124H244.578L249.362 113.28H251.794L256.578 124H254.626L253.394 121.216H247.73L246.498 124ZM249.874 116.4L248.418 119.664H252.706L251.25 116.4L250.626 114.88H250.498L249.874 116.4ZM259.106 124H257.378V113.28H262.626C265.01 113.28 266.642 114.64 266.642 117.024C266.642 119.392 265.01 120.768 262.626 120.768H259.106V124ZM262.466 114.832H259.106V119.216H262.466C264.082 119.216 264.914 118.608 264.914 117.024C264.914 115.44 264.082 114.832 262.466 114.832ZM269.403 124H267.675V113.28H272.923C275.307 113.28 276.939 114.64 276.939 117.024C276.939 119.392 275.307 120.768 272.923 120.768H269.403V124ZM272.763 114.832H269.403V119.216H272.763C274.379 119.216 275.211 118.608 275.211 117.024C275.211 115.44 274.379 114.832 272.763 114.832ZM286.308 124H277.972V113.28H279.7V122.448H286.308V124ZM296.001 124H287.425V113.28H296.001V114.832H289.153V117.84H295.761V119.376H289.153V122.448H296.001V124Z" fill="black"/>
<path d="M101.498 125.24C100.808 126.773 100.475 127.458 99.5875 128.81C98.345 130.7 96.5925 133.06 94.4275 133.075C92.5 133.093 92.0025 131.818 89.385 131.84C86.77 131.853 86.225 133.1 84.295 133.08C82.1275 133.06 80.47 130.935 79.2275 129.048C75.7525 123.755 75.385 117.55 77.5325 114.25C79.0525 111.91 81.455 110.535 83.7125 110.535C86.0125 110.535 87.4575 111.798 89.3575 111.798C91.2025 111.798 92.325 110.533 94.985 110.533C96.995 110.533 99.12 111.628 100.64 113.518C95.67 116.243 96.4775 123.34 101.498 125.24ZM92.965 108.42C93.9325 107.178 94.6675 105.425 94.4 103.64C92.8225 103.748 90.9775 104.755 89.9 106.06C88.9225 107.25 88.1125 109.015 88.4275 110.723C90.15 110.778 91.9325 109.75 92.965 108.42Z" fill="black"/>
<rect y="166" width="370" height="73" rx="36.5" fill="white"/>
<path d="M103.016 207.16C99.688 207.16 97.48 204.984 97.48 201.64C97.48 198.296 99.688 196.12 103.016 196.12C106.04 196.12 108.152 197.72 108.152 200.28V200.504H106.248V200.28C106.248 198.648 105.208 197.768 103.032 197.768C100.52 197.768 99.304 198.968 99.304 201.64C99.304 204.312 100.52 205.496 103.032 205.496C105.208 205.496 106.248 204.632 106.248 202.984V202.776H108.152V202.984C108.152 205.56 106.056 207.16 103.016 207.16ZM114.689 207.16C111.329 207.16 109.105 204.984 109.105 201.64C109.105 198.296 111.329 196.12 114.689 196.12C118.081 196.12 120.289 198.296 120.289 201.64C120.289 204.984 118.081 207.16 114.689 207.16ZM114.689 205.496C117.233 205.496 118.465 204.312 118.465 201.64C118.465 198.968 117.233 197.768 114.689 197.768C112.145 197.768 110.929 198.968 110.929 201.64C110.929 204.312 112.145 205.496 114.689 205.496ZM123.294 207H121.566V196.28H123.422L128.222 202.552L129.614 204.552H129.742L129.662 202.616V196.28H131.39V207H129.534L124.702 200.744L123.358 198.856H123.23L123.294 200.712V207ZM138.316 207H136.604V197.832H132.38V196.28H142.524V197.832H138.316V207ZM145.262 207H143.534V196.28H145.262V207ZM148.591 207H146.863V196.28H148.719L153.519 202.552L154.911 204.552H155.039L154.959 202.616V196.28H156.687V207H154.831L149.999 200.744L148.655 198.856H148.527L148.591 200.712V207ZM163.244 207.16C160.044 207.16 158.22 205.464 158.22 202.552V196.28H159.932V202.44C159.932 204.6 160.892 205.496 163.244 205.496C165.596 205.496 166.556 204.6 166.556 202.44V196.28H168.284V202.552C168.284 205.464 166.46 207.16 163.244 207.16ZM178.392 207H169.816V196.28H178.392V197.832H171.544V200.84H178.152V202.376H171.544V205.448H178.392V207ZM187.272 207H184.728L181.896 196.28H183.816L185.56 203.064L186.04 205.336H186.168L186.744 203.064L188.904 196.28H191.416L193.72 203.064L194.328 205.336H194.456L194.904 203.064L196.504 196.28H198.392L195.704 207H193.16L191 200.76L190.216 198.008H190.072L189.304 200.76L187.272 207ZM201.137 207H199.409V196.28H201.137V207ZM208.066 207H206.354V197.832H202.13V196.28H212.274V197.832H208.066V207ZM215.012 207H213.284V196.28H215.012V200.824H221.316V196.28H223.028V207H221.316V202.376H215.012V207ZM229.106 207H227.378V196.28H235.906V197.832H229.106V201.16H235.666V202.696H229.106V207ZM238.311 207H236.391L241.175 196.28H243.607L248.391 207H246.439L245.207 204.216H239.543L238.311 207ZM241.687 199.4L240.231 202.664H244.519L243.063 199.4L242.439 197.88H242.311L241.687 199.4ZM254.407 207.16C251.079 207.16 248.871 204.984 248.871 201.64C248.871 198.296 251.079 196.12 254.407 196.12C257.431 196.12 259.543 197.72 259.543 200.28V200.504H257.639V200.28C257.639 198.648 256.599 197.768 254.423 197.768C251.911 197.768 250.695 198.968 250.695 201.64C250.695 204.312 251.911 205.496 254.423 205.496C256.599 205.496 257.639 204.632 257.639 202.984V202.776H259.543V202.984C259.543 205.56 257.447 207.16 254.407 207.16ZM269.392 207H260.816V196.28H269.392V197.832H262.544V200.84H269.152V202.376H262.544V205.448H269.392V207ZM276.882 207H270.658V196.28H276.658C278.706 196.28 279.938 197.224 279.938 198.92C279.938 200.184 279.234 201.128 277.602 201.32V201.432C279.426 201.64 280.322 202.632 280.322 204.04C280.322 205.88 279.09 207 276.882 207ZM272.37 197.832V200.776H276.418C277.618 200.776 278.226 200.312 278.226 199.304C278.226 198.296 277.666 197.832 276.466 197.832H272.37ZM272.37 202.2V205.448H276.69C277.97 205.448 278.594 204.968 278.594 203.8C278.594 202.68 277.954 202.2 276.69 202.2H272.37ZM286.705 207.16C283.345 207.16 281.121 204.984 281.121 201.64C281.121 198.296 283.345 196.12 286.705 196.12C290.097 196.12 292.305 198.296 292.305 201.64C292.305 204.984 290.097 207.16 286.705 207.16ZM286.705 205.496C289.249 205.496 290.481 204.312 290.481 201.64C290.481 198.968 289.249 197.768 286.705 197.768C284.161 197.768 282.945 198.968 282.945 201.64C282.945 204.312 284.161 205.496 286.705 205.496ZM298.845 207.16C295.485 207.16 293.261 204.984 293.261 201.64C293.261 198.296 295.485 196.12 298.845 196.12C302.237 196.12 304.445 198.296 304.445 201.64C304.445 204.984 302.237 207.16 298.845 207.16ZM298.845 205.496C301.389 205.496 302.621 204.312 302.621 201.64C302.621 198.968 301.389 197.768 298.845 197.768C296.301 197.768 295.085 198.968 295.085 201.64C295.085 204.312 296.301 205.496 298.845 205.496ZM307.45 207H305.722V196.28H307.45V200.856H310.698L313.834 196.28H315.882L312.138 201.576L315.866 207H313.818L310.73 202.52H307.45V207Z" fill="black"/>
<path d="M87 213.556C87 216.011 85.0107 218 82.5556 218H59.4444C56.9902 218 55 216.011 55 213.556V190.444C55 187.989 56.9902 186 59.4444 186H82.5556C85.0107 186 87 187.989 87 190.444V213.556Z" fill="#3F51B5"/>
<path d="M80.2165 202.89H77.2227V214.445H72.7782V202.89H70.1116V199.334H72.7782V197.192C72.78 194.074 74.0751 192.223 77.7489 192.223H80.7782V195.779H78.7454C77.3151 195.779 77.2227 196.312 77.2227 197.31V199.334H80.7782L80.2165 202.89Z" fill="white"/>
</svg>
