<svg width="332" height="390" viewBox="0 0 332 390" fill="none" xmlns="http://www.w3.org/2000/svg">
<path d="M9.77334 14H7.52334V3.95H10.5683L12.9233 8.9L13.8683 11.255H14.0333L14.9483 8.9L17.2283 3.95H20.2883V14H18.0383V8.9L18.1133 7.325H17.9483L17.3633 8.9L15.2633 13.4H12.5333L10.4333 8.9L9.84834 7.325H9.68334L9.77334 8.9V14ZM28.1287 14H24.9187L20.7487 3.95H23.4637L26.4787 11.72H26.6287L29.5987 3.95H32.2987L28.1287 14ZM35.0272 14H32.7772V3.95H38.0272C40.3522 3.95 41.8522 5.27 41.8522 7.58C41.8522 9.89 40.3522 11.225 38.0272 11.225H35.0272V14ZM37.7872 5.975H35.0272V9.2H37.7872C39.0322 9.2 39.6172 8.84 39.6172 7.58C39.6172 6.35 39.0322 5.975 37.7872 5.975ZM51.6247 14H48.4147L44.2447 3.95H46.9597L49.9747 11.72H50.1247L53.0947 3.95H55.7947L51.6247 14ZM60.2633 14.15C57.7583 14.15 56.0483 12.92 56.0483 10.25C56.0483 7.85 57.7433 6.335 60.2183 6.335C62.6783 6.335 64.3133 7.625 64.3133 9.98C64.3133 10.25 64.2833 10.445 64.2533 10.7H58.1333C58.1933 11.855 58.7333 12.35 60.1883 12.35C61.5233 12.35 61.9883 12.005 61.9883 11.36V11.21H64.2383V11.375C64.2383 13.01 62.6483 14.15 60.2633 14.15ZM60.1733 8.09C58.8383 8.09 58.2683 8.54 58.1633 9.515H62.1533C62.0933 8.525 61.4933 8.09 60.1733 8.09ZM67.5175 14H65.2675V6.485H67.3525V8.48H67.4875C67.6975 7.265 68.4925 6.335 70.0075 6.335C71.6875 6.335 72.3775 7.49 72.3775 8.96V10.205H70.1275V9.425C70.1275 8.6 69.7975 8.24 68.8825 8.24C67.8775 8.24 67.5175 8.705 67.5175 9.65V14ZM76.9873 14.15C74.4523 14.15 73.0573 13.16 73.0573 11.42V11.375H75.3073V11.51C75.3073 12.185 75.7273 12.365 77.0023 12.365C78.2023 12.365 78.4873 12.17 78.4873 11.72C78.4873 11.3 78.2623 11.18 77.3773 11.06L75.2623 10.805C73.7623 10.64 72.9223 9.965 72.9223 8.705C72.9223 7.385 74.0473 6.335 76.6273 6.335C79.0873 6.335 80.4823 7.265 80.4823 9.095V9.14H78.2323V9.05C78.2323 8.435 77.9323 8.12 76.5523 8.12C75.4273 8.12 75.1423 8.315 75.1423 8.795C75.1423 9.185 75.3523 9.35 76.3423 9.47L77.9473 9.665C79.9573 9.89 80.7073 10.565 80.7073 11.81C80.7073 13.22 79.3123 14.15 76.9873 14.15ZM83.8651 5.72H81.6151V3.95H83.8651V5.72ZM83.8651 14H81.6151V6.485H83.8651V14ZM89.0479 14.15C86.4829 14.15 84.7579 12.62 84.7579 10.25C84.7579 7.85 86.4829 6.335 89.0479 6.335C91.6129 6.335 93.3379 7.85 93.3379 10.25C93.3379 12.62 91.6129 14.15 89.0479 14.15ZM89.0479 12.155C90.5629 12.155 91.1029 11.57 91.1029 10.25C91.1029 8.93 90.5629 8.315 89.0479 8.315C87.5179 8.315 86.9929 8.93 86.9929 10.25C86.9929 11.57 87.5179 12.155 89.0479 12.155ZM96.5067 14H94.2567V6.485H96.3417V8.795H96.4767C96.6717 7.535 97.5717 6.335 99.5367 6.335C101.592 6.335 102.567 7.655 102.567 9.32V14H100.317V10.07C100.317 8.87 99.8217 8.36 98.4417 8.36C97.0167 8.36 96.5067 8.93 96.5067 10.205V14ZM114.254 14H106.019V3.95H108.269V11.975H114.254V14ZM117.41 5.72H115.16V3.95H117.41V5.72ZM117.41 14H115.16V6.485H117.41V14ZM120.838 14H118.588V6.485H120.673V8.765H120.793C120.973 7.505 121.723 6.335 123.613 6.335C125.353 6.335 126.238 7.4 126.403 8.795H126.538C126.718 7.52 127.483 6.335 129.418 6.335C131.353 6.335 132.298 7.61 132.298 9.32V14H130.048V10.07C130.048 8.825 129.613 8.36 128.323 8.36C126.958 8.36 126.568 8.9 126.568 10.205V14H124.318V10.07C124.318 8.825 123.883 8.36 122.593 8.36C121.228 8.36 120.838 8.9 120.838 10.205V14ZM135.691 5.72H133.441V3.95H135.691V5.72ZM135.691 14H133.441V6.485H135.691V14ZM142.164 14H140.304C138.549 14 137.484 13.175 137.484 11.285V8.345H136.299V6.485H137.484V5.03H139.734V6.485H142.164V8.345H139.734V11.03C139.734 11.78 140.019 11.975 140.814 11.975H142.164V14ZM145.317 14.15C143.697 14.15 142.722 13.4 142.722 12.14C142.722 11.03 143.547 10.34 145.152 10.175L148.377 9.845V9.56C148.377 8.585 147.942 8.315 146.742 8.315C145.602 8.315 145.137 8.615 145.137 9.47V9.53H142.872V9.485C142.872 7.625 144.432 6.335 146.907 6.335C149.412 6.335 150.597 7.625 150.597 9.59V14H148.497V12.275H148.377C148.032 13.445 146.982 14.15 145.317 14.15ZM144.987 11.99C144.987 12.395 145.302 12.56 145.962 12.56C147.492 12.56 148.317 12.2 148.377 11.135L145.767 11.435C145.227 11.48 144.987 11.63 144.987 11.99ZM157.032 14H155.172C153.417 14 152.352 13.175 152.352 11.285V8.345H151.167V6.485H152.352V5.03H154.602V6.485H157.032V8.345H154.602V11.03C154.602 11.78 154.887 11.975 155.682 11.975H157.032V14ZM160.125 5.72H157.875V3.95H160.125V5.72ZM160.125 14H157.875V6.485H160.125V14ZM165.308 14.15C162.743 14.15 161.018 12.62 161.018 10.25C161.018 7.85 162.743 6.335 165.308 6.335C167.873 6.335 169.598 7.85 169.598 10.25C169.598 12.62 167.873 14.15 165.308 14.15ZM165.308 12.155C166.823 12.155 167.363 11.57 167.363 10.25C167.363 8.93 166.823 8.315 165.308 8.315C163.778 8.315 163.253 8.93 163.253 10.25C163.253 11.57 163.778 12.155 165.308 12.155ZM172.767 14H170.517V6.485H172.602V8.795H172.737C172.932 7.535 173.832 6.335 175.797 6.335C177.852 6.335 178.827 7.655 178.827 9.32V14H176.577V10.07C176.577 8.87 176.082 8.36 174.702 8.36C173.277 8.36 172.767 8.93 172.767 10.205V14ZM183.76 14.15C181.225 14.15 179.83 13.16 179.83 11.42V11.375H182.08V11.51C182.08 12.185 182.5 12.365 183.775 12.365C184.975 12.365 185.26 12.17 185.26 11.72C185.26 11.3 185.035 11.18 184.15 11.06L182.035 10.805C180.535 10.64 179.695 9.965 179.695 8.705C179.695 7.385 180.82 6.335 183.4 6.335C185.86 6.335 187.255 7.265 187.255 9.095V9.14H185.005V9.05C185.005 8.435 184.705 8.12 183.325 8.12C182.2 8.12 181.915 8.315 181.915 8.795C181.915 9.185 182.125 9.35 183.115 9.47L184.72 9.665C186.73 9.89 187.48 10.565 187.48 11.81C187.48 13.22 186.085 14.15 183.76 14.15ZM192.952 14H190.702V3.95H193.102L196.702 8.705L198.082 10.82H198.247L198.142 8.795V3.95H200.392V14H197.992L194.287 9.2L193.012 7.31H192.862L192.952 9.155V14ZM205.576 14.15C203.071 14.15 201.361 12.92 201.361 10.25C201.361 7.85 203.056 6.335 205.531 6.335C207.991 6.335 209.626 7.625 209.626 9.98C209.626 10.25 209.596 10.445 209.566 10.7H203.446C203.506 11.855 204.046 12.35 205.501 12.35C206.836 12.35 207.301 12.005 207.301 11.36V11.21H209.551V11.375C209.551 13.01 207.961 14.15 205.576 14.15ZM205.486 8.09C204.151 8.09 203.581 8.54 203.476 9.515H207.466C207.406 8.525 206.806 8.09 205.486 8.09ZM212.665 14H210.58V3.95H212.83V8.48H212.95C213.205 7.22 214.12 6.335 215.905 6.335C218.155 6.335 219.415 7.85 219.415 10.25C219.415 12.62 218.14 14.15 215.8 14.15C214.06 14.15 213.07 13.4 212.8 11.915H212.665V14ZM212.83 10.295C212.83 11.6 213.595 12.095 215.02 12.095C216.475 12.095 217.135 11.615 217.135 10.25C217.135 8.87 216.475 8.39 215.035 8.39C213.58 8.39 212.83 8.87 212.83 10.175V10.295ZM223.455 14.15C221.34 14.15 220.335 12.845 220.335 11.165V6.485H222.585V10.415C222.585 11.63 223.095 12.14 224.52 12.14C225.99 12.14 226.515 11.57 226.515 10.295V6.485H228.765V14H226.665V11.705H226.545C226.35 12.965 225.435 14.15 223.455 14.15ZM232.166 14H229.916V3.95H232.166V14ZM235.654 14.15C234.034 14.15 233.059 13.4 233.059 12.14C233.059 11.03 233.884 10.34 235.489 10.175L238.714 9.845V9.56C238.714 8.585 238.279 8.315 237.079 8.315C235.939 8.315 235.474 8.615 235.474 9.47V9.53H233.209V9.485C233.209 7.625 234.769 6.335 237.244 6.335C239.749 6.335 240.934 7.625 240.934 9.59V14H238.834V12.275H238.714C238.369 13.445 237.319 14.15 235.654 14.15ZM235.324 11.99C235.324 12.395 235.639 12.56 236.299 12.56C237.829 12.56 238.654 12.2 238.714 11.135L236.104 11.435C235.564 11.48 235.324 11.63 235.324 11.99ZM246.234 14H243.714L248.109 3.95H251.319L255.744 14H253.164L252.219 11.78H247.194L246.234 14ZM249.009 7.565L248.064 9.755H251.349L250.404 7.565L249.789 6.005H249.624L249.009 7.565ZM258.518 16.55H256.268V6.485H258.353V8.54H258.503C258.773 7.1 259.733 6.335 261.503 6.335C263.813 6.335 265.103 7.865 265.103 10.25C265.103 12.635 263.843 14.15 261.578 14.15C259.838 14.15 258.878 13.295 258.623 11.975H258.518V16.55ZM258.518 10.355C258.518 11.645 259.298 12.095 260.708 12.095C262.148 12.095 262.823 11.615 262.823 10.25C262.823 8.87 262.148 8.405 260.723 8.405C259.268 8.405 258.518 8.9 258.518 10.235V10.355ZM268.289 16.55H266.039V6.485H268.124V8.54H268.274C268.544 7.1 269.504 6.335 271.274 6.335C273.584 6.335 274.874 7.865 274.874 10.25C274.874 12.635 273.614 14.15 271.349 14.15C269.609 14.15 268.649 13.295 268.394 11.975H268.289V16.55ZM268.289 10.355C268.289 11.645 269.069 12.095 270.479 12.095C271.919 12.095 272.594 11.615 272.594 10.25C272.594 8.87 271.919 8.405 270.494 8.405C269.039 8.405 268.289 8.9 268.289 10.235V10.355ZM277.414 8.285H276.019L275.539 6.125V3.95H277.879V6.125L277.414 8.285ZM282.607 14.15C280.072 14.15 278.677 13.16 278.677 11.42V11.375H280.927V11.51C280.927 12.185 281.347 12.365 282.622 12.365C283.822 12.365 284.107 12.17 284.107 11.72C284.107 11.3 283.882 11.18 282.997 11.06L280.882 10.805C279.382 10.64 278.542 9.965 278.542 8.705C278.542 7.385 279.667 6.335 282.247 6.335C284.707 6.335 286.102 7.265 286.102 9.095V9.14H283.852V9.05C283.852 8.435 283.552 8.12 282.172 8.12C281.047 8.12 280.762 8.315 280.762 8.795C280.762 9.185 280.972 9.35 281.962 9.47L283.567 9.665C285.577 9.89 286.327 10.565 286.327 11.81C286.327 13.22 284.932 14.15 282.607 14.15ZM291.8 14H289.55V3.95H292.595L294.95 8.9L295.895 11.255H296.06L296.975 8.9L299.255 3.95H302.315V14H300.065V8.9L300.14 7.325H299.975L299.39 8.9L297.29 13.4H294.56L292.46 8.9L291.875 7.325H291.71L291.8 8.9V14ZM310.155 14H306.945L302.775 3.95H305.49L308.505 11.72H308.655L311.625 3.95H314.325L310.155 14ZM317.054 14H314.804V3.95H320.054C322.379 3.95 323.879 5.27 323.879 7.58C323.879 9.89 322.379 11.225 320.054 11.225H317.054V14ZM319.814 5.975H317.054V9.2H319.814C321.059 9.2 321.644 8.84 321.644 7.58C321.644 6.35 321.059 5.975 319.814 5.975ZM31.839 32H29.064L25.644 24.485H28.149L30.399 29.81H30.549L32.814 24.485H35.274L31.839 32ZM39.8581 32.15C37.3531 32.15 35.6431 30.92 35.6431 28.25C35.6431 25.85 37.3381 24.335 39.8131 24.335C42.2731 24.335 43.9081 25.625 43.9081 27.98C43.9081 28.25 43.8781 28.445 43.8481 28.7H37.7281C37.7881 29.855 38.3281 30.35 39.7831 30.35C41.1181 30.35 41.5831 30.005 41.5831 29.36V29.21H43.8331V29.375C43.8331 31.01 42.2431 32.15 39.8581 32.15ZM39.7681 26.09C38.4331 26.09 37.8631 26.54 37.7581 27.515H41.7481C41.6881 26.525 41.0881 26.09 39.7681 26.09ZM47.1122 32H44.8622V24.485H46.9472V26.48H47.0822C47.2922 25.265 48.0872 24.335 49.6022 24.335C51.2822 24.335 51.9722 25.49 51.9722 26.96V28.205H49.7222V27.425C49.7222 26.6 49.3922 26.24 48.4772 26.24C47.4722 26.24 47.1122 26.705 47.1122 27.65V32ZM56.582 32.15C54.047 32.15 52.652 31.16 52.652 29.42V29.375H54.902V29.51C54.902 30.185 55.322 30.365 56.597 30.365C57.797 30.365 58.082 30.17 58.082 29.72C58.082 29.3 57.857 29.18 56.972 29.06L54.857 28.805C53.357 28.64 52.517 27.965 52.517 26.705C52.517 25.385 53.642 24.335 56.222 24.335C58.682 24.335 60.077 25.265 60.077 27.095V27.14H57.827V27.05C57.827 26.435 57.527 26.12 56.147 26.12C55.022 26.12 54.737 26.315 54.737 26.795C54.737 27.185 54.947 27.35 55.937 27.47L57.542 27.665C59.552 27.89 60.302 28.565 60.302 29.81C60.302 31.22 58.907 32.15 56.582 32.15ZM63.4599 23.72H61.2099V21.95H63.4599V23.72ZM63.4599 32H61.2099V24.485H63.4599V32ZM68.6426 32.15C66.0776 32.15 64.3526 30.62 64.3526 28.25C64.3526 25.85 66.0776 24.335 68.6426 24.335C71.2076 24.335 72.9326 25.85 72.9326 28.25C72.9326 30.62 71.2076 32.15 68.6426 32.15ZM68.6426 30.155C70.1576 30.155 70.6976 29.57 70.6976 28.25C70.6976 26.93 70.1576 26.315 68.6426 26.315C67.1126 26.315 66.5876 26.93 66.5876 28.25C66.5876 29.57 67.1126 30.155 68.6426 30.155ZM76.1015 32H73.8515V24.485H75.9365V26.795H76.0715C76.2665 25.535 77.1665 24.335 79.1315 24.335C81.1865 24.335 82.1615 25.655 82.1615 27.32V32H79.9115V28.07C79.9115 26.87 79.4165 26.36 78.0365 26.36C76.6115 26.36 76.1015 26.93 76.1015 28.205V32ZM88.9742 32.15C86.6342 32.15 85.3442 30.62 85.3442 28.25C85.3442 25.85 86.6192 24.335 88.8542 24.335C90.6392 24.335 91.5542 25.22 91.8092 26.48H91.9442V21.95H94.1942V32H92.0942V29.915H91.9742C91.6892 31.4 90.6992 32.15 88.9742 32.15ZM87.6242 28.25C87.6242 29.615 88.2992 30.095 89.7392 30.095C91.1642 30.095 91.9442 29.6 91.9442 28.295V28.175C91.9442 26.87 91.1792 26.39 89.7392 26.39C88.2992 26.39 87.6242 26.87 87.6242 28.25ZM99.3897 32.15C96.8247 32.15 95.0997 30.62 95.0997 28.25C95.0997 25.85 96.8247 24.335 99.3897 24.335C101.955 24.335 103.68 25.85 103.68 28.25C103.68 30.62 101.955 32.15 99.3897 32.15ZM99.3897 30.155C100.905 30.155 101.445 29.57 101.445 28.25C101.445 26.93 100.905 26.315 99.3897 26.315C97.8597 26.315 97.3347 26.93 97.3347 28.25C97.3347 29.57 97.8597 30.155 99.3897 30.155ZM108.589 32.15C106.084 32.15 104.374 30.92 104.374 28.25C104.374 25.85 106.069 24.335 108.544 24.335C111.004 24.335 112.639 25.625 112.639 27.98C112.639 28.25 112.609 28.445 112.579 28.7H106.459C106.519 29.855 107.059 30.35 108.514 30.35C109.849 30.35 110.314 30.005 110.314 29.36V29.21H112.564V29.375C112.564 31.01 110.974 32.15 108.589 32.15ZM108.499 26.09C107.164 26.09 106.594 26.54 106.489 27.515H110.479C110.419 26.525 109.819 26.09 108.499 26.09ZM117.388 32.15C114.853 32.15 113.458 31.16 113.458 29.42V29.375H115.708V29.51C115.708 30.185 116.128 30.365 117.403 30.365C118.603 30.365 118.888 30.17 118.888 29.72C118.888 29.3 118.663 29.18 117.778 29.06L115.663 28.805C114.163 28.64 113.323 27.965 113.323 26.705C113.323 25.385 114.448 24.335 117.028 24.335C119.488 24.335 120.883 25.265 120.883 27.095V27.14H118.633V27.05C118.633 26.435 118.333 26.12 116.953 26.12C115.828 26.12 115.543 26.315 115.543 26.795C115.543 27.185 115.753 27.35 116.743 27.47L118.348 27.665C120.358 27.89 121.108 28.565 121.108 29.81C121.108 31.22 119.713 32.15 117.388 32.15ZM126.58 32H124.33V24.485H126.415V26.795H126.55C126.745 25.535 127.645 24.335 129.61 24.335C131.665 24.335 132.64 25.655 132.64 27.32V32H130.39V28.07C130.39 26.87 129.895 26.36 128.515 26.36C127.09 26.36 126.58 26.93 126.58 28.205V32ZM137.783 32.15C135.218 32.15 133.493 30.62 133.493 28.25C133.493 25.85 135.218 24.335 137.783 24.335C140.348 24.335 142.073 25.85 142.073 28.25C142.073 30.62 140.348 32.15 137.783 32.15ZM137.783 30.155C139.298 30.155 139.838 29.57 139.838 28.25C139.838 26.93 139.298 26.315 137.783 26.315C136.253 26.315 135.728 26.93 135.728 28.25C135.728 29.57 136.253 30.155 137.783 30.155ZM148.287 32H146.427C144.672 32 143.607 31.175 143.607 29.285V26.345H142.422V24.485H143.607V23.03H145.857V24.485H148.287V26.345H145.857V29.03C145.857 29.78 146.142 29.975 146.937 29.975H148.287V32ZM155.434 32.15C152.929 32.15 151.219 30.92 151.219 28.25C151.219 25.85 152.914 24.335 155.389 24.335C157.849 24.335 159.484 25.625 159.484 27.98C159.484 28.25 159.454 28.445 159.424 28.7H153.304C153.364 29.855 153.904 30.35 155.359 30.35C156.694 30.35 157.159 30.005 157.159 29.36V29.21H159.409V29.375C159.409 31.01 157.819 32.15 155.434 32.15ZM155.344 26.09C154.009 26.09 153.439 26.54 153.334 27.515H157.324C157.264 26.525 156.664 26.09 155.344 26.09ZM162.688 32H160.438V24.485H162.523V26.795H162.658C162.853 25.535 163.753 24.335 165.718 24.335C167.773 24.335 168.748 25.655 168.748 27.32V32H166.498V28.07C166.498 26.87 166.003 26.36 164.623 26.36C163.198 26.36 162.688 26.93 162.688 28.205V32ZM173.682 32.15C171.147 32.15 169.752 31.16 169.752 29.42V29.375H172.002V29.51C172.002 30.185 172.422 30.365 173.697 30.365C174.897 30.365 175.182 30.17 175.182 29.72C175.182 29.3 174.957 29.18 174.072 29.06L171.957 28.805C170.457 28.64 169.617 27.965 169.617 26.705C169.617 25.385 170.742 24.335 173.322 24.335C175.782 24.335 177.177 25.265 177.177 27.095V27.14H174.927V27.05C174.927 26.435 174.627 26.12 173.247 26.12C172.122 26.12 171.837 26.315 171.837 26.795C171.837 27.185 172.047 27.35 173.037 27.47L174.642 27.665C176.652 27.89 177.402 28.565 177.402 29.81C177.402 31.22 176.007 32.15 173.682 32.15ZM181.414 32.15C179.299 32.15 178.294 30.845 178.294 29.165V24.485H180.544V28.415C180.544 29.63 181.054 30.14 182.479 30.14C183.949 30.14 184.474 29.57 184.474 28.295V24.485H186.724V32H184.624V29.705H184.504C184.309 30.965 183.394 32.15 181.414 32.15ZM190.125 32H187.875V24.485H189.96V26.48H190.095C190.305 25.265 191.1 24.335 192.615 24.335C194.295 24.335 194.985 25.49 194.985 26.96V28.205H192.735V27.425C192.735 26.6 192.405 26.24 191.49 26.24C190.485 26.24 190.125 26.705 190.125 27.65V32ZM199.79 32.15C197.285 32.15 195.575 30.92 195.575 28.25C195.575 25.85 197.27 24.335 199.745 24.335C202.205 24.335 203.84 25.625 203.84 27.98C203.84 28.25 203.81 28.445 203.78 28.7H197.66C197.72 29.855 198.26 30.35 199.715 30.35C201.05 30.35 201.515 30.005 201.515 29.36V29.21H203.765V29.375C203.765 31.01 202.175 32.15 199.79 32.15ZM199.7 26.09C198.365 26.09 197.795 26.54 197.69 27.515H201.68C201.62 26.525 201.02 26.09 199.7 26.09ZM210.213 32.15C208.098 32.15 207.093 30.845 207.093 29.165V24.485H209.343V28.415C209.343 29.63 209.853 30.14 211.278 30.14C212.748 30.14 213.273 29.57 213.273 28.295V24.485H215.523V32H213.423V29.705H213.303C213.108 30.965 212.193 32.15 210.213 32.15ZM220.469 32.15C217.934 32.15 216.539 31.16 216.539 29.42V29.375H218.789V29.51C218.789 30.185 219.209 30.365 220.484 30.365C221.684 30.365 221.969 30.17 221.969 29.72C221.969 29.3 221.744 29.18 220.859 29.06L218.744 28.805C217.244 28.64 216.404 27.965 216.404 26.705C216.404 25.385 217.529 24.335 220.109 24.335C222.569 24.335 223.964 25.265 223.964 27.095V27.14H221.714V27.05C221.714 26.435 221.414 26.12 220.034 26.12C218.909 26.12 218.624 26.315 218.624 26.795C218.624 27.185 218.834 27.35 219.824 27.47L221.429 27.665C223.439 27.89 224.189 28.565 224.189 29.81C224.189 31.22 222.794 32.15 220.469 32.15ZM229.087 32.15C226.582 32.15 224.872 30.92 224.872 28.25C224.872 25.85 226.567 24.335 229.042 24.335C231.502 24.335 233.137 25.625 233.137 27.98C233.137 28.25 233.107 28.445 233.077 28.7H226.957C227.017 29.855 227.557 30.35 229.012 30.35C230.347 30.35 230.812 30.005 230.812 29.36V29.21H233.062V29.375C233.062 31.01 231.472 32.15 229.087 32.15ZM228.997 26.09C227.662 26.09 227.092 26.54 226.987 27.515H230.977C230.917 26.525 230.317 26.09 228.997 26.09ZM236.341 32H234.091V24.485H236.176V26.48H236.311C236.521 25.265 237.316 24.335 238.831 24.335C240.511 24.335 241.201 25.49 241.201 26.96V28.205H238.951V27.425C238.951 26.6 238.621 26.24 237.706 26.24C236.701 26.24 236.341 26.705 236.341 27.65V32ZM246.58 34.55H244.33V24.485H246.415V26.54H246.565C246.835 25.1 247.795 24.335 249.565 24.335C251.875 24.335 253.165 25.865 253.165 28.25C253.165 30.635 251.905 32.15 249.64 32.15C247.9 32.15 246.94 31.295 246.685 29.975H246.58V34.55ZM246.58 28.355C246.58 29.645 247.36 30.095 248.77 30.095C250.21 30.095 250.885 29.615 250.885 28.25C250.885 26.87 250.21 26.405 248.785 26.405C247.33 26.405 246.58 26.9 246.58 28.235V28.355ZM256.35 32H254.1V24.485H256.185V26.48H256.32C256.53 25.265 257.325 24.335 258.84 24.335C260.52 24.335 261.21 25.49 261.21 26.96V28.205H258.96V27.425C258.96 26.6 258.63 26.24 257.715 26.24C256.71 26.24 256.35 26.705 256.35 27.65V32ZM264.275 23.72H262.025V21.95H264.275V23.72ZM264.275 32H262.025V24.485H264.275V32ZM271.048 32H268.273L264.853 24.485H267.358L269.608 29.81H269.758L272.023 24.485H274.483L271.048 32ZM277.387 32.15C275.767 32.15 274.792 31.4 274.792 30.14C274.792 29.03 275.617 28.34 277.222 28.175L280.447 27.845V27.56C280.447 26.585 280.012 26.315 278.812 26.315C277.672 26.315 277.207 26.615 277.207 27.47V27.53H274.942V27.485C274.942 25.625 276.502 24.335 278.977 24.335C281.482 24.335 282.667 25.625 282.667 27.59V32H280.567V30.275H280.447C280.102 31.445 279.052 32.15 277.387 32.15ZM277.057 29.99C277.057 30.395 277.372 30.56 278.032 30.56C279.562 30.56 280.387 30.2 280.447 29.135L277.837 29.435C277.297 29.48 277.057 29.63 277.057 29.99ZM287.813 32.15C285.233 32.15 283.583 30.62 283.583 28.25C283.583 25.85 285.233 24.335 287.813 24.335C290.228 24.335 291.878 25.625 291.878 27.575V27.785H289.643V27.665C289.643 26.705 288.938 26.36 287.768 26.36C286.433 26.36 285.818 26.855 285.818 28.25C285.818 29.63 286.433 30.125 287.768 30.125C288.938 30.125 289.643 29.78 289.643 28.82V28.7H291.878V28.91C291.878 30.845 290.228 32.15 287.813 32.15ZM294.286 34.55H293.056V32.51H294.901C295.456 32.51 295.696 32.36 295.846 32.03L292.171 24.485H294.721L296.311 27.92L296.941 29.69H297.091L297.691 27.905L299.116 24.485H301.621L297.901 32.54C297.181 34.115 296.176 34.55 294.286 34.55ZM304.907 32H302.012V29.375H304.907V32Z" fill="#181818"/>
<path d="M26.551 60H24.031L28.426 49.95H31.636L36.061 60H33.481L32.536 57.78H27.511L26.551 60ZM29.326 53.565L28.381 55.755H31.666L30.721 53.565L30.106 52.005H29.941L29.326 53.565ZM42.1808 60H39.4058L35.9858 52.485H38.4908L40.7408 57.81H40.8908L43.1558 52.485H45.6158L42.1808 60ZM50.2149 60.15C47.6499 60.15 45.9249 58.62 45.9249 56.25C45.9249 53.85 47.6499 52.335 50.2149 52.335C52.7799 52.335 54.5049 53.85 54.5049 56.25C54.5049 58.62 52.7799 60.15 50.2149 60.15ZM50.2149 58.155C51.7299 58.155 52.2699 57.57 52.2699 56.25C52.2699 54.93 51.7299 54.315 50.2149 54.315C48.6849 54.315 48.1599 54.93 48.1599 56.25C48.1599 57.57 48.6849 58.155 50.2149 58.155ZM57.6737 51.72H55.4237V49.95H57.6737V51.72ZM57.6737 60H55.4237V52.485H57.6737V60ZM62.2115 60.15C59.8715 60.15 58.5815 58.62 58.5815 56.25C58.5815 53.85 59.8565 52.335 62.0915 52.335C63.8765 52.335 64.7915 53.22 65.0465 54.48H65.1815V49.95H67.4315V60H65.3315V57.915H65.2115C64.9265 59.4 63.9365 60.15 62.2115 60.15ZM60.8615 56.25C60.8615 57.615 61.5365 58.095 62.9765 58.095C64.4015 58.095 65.1815 57.6 65.1815 56.295V56.175C65.1815 54.87 64.4165 54.39 62.9765 54.39C61.5365 54.39 60.8615 54.87 60.8615 56.25ZM74.7314 60.15C72.1964 60.15 70.8014 59.16 70.8014 57.42V57.375H73.0514V57.51C73.0514 58.185 73.4714 58.365 74.7464 58.365C75.9464 58.365 76.2314 58.17 76.2314 57.72C76.2314 57.3 76.0064 57.18 75.1214 57.06L73.0064 56.805C71.5064 56.64 70.6664 55.965 70.6664 54.705C70.6664 53.385 71.7914 52.335 74.3714 52.335C76.8314 52.335 78.2264 53.265 78.2264 55.095V55.14H75.9764V55.05C75.9764 54.435 75.6764 54.12 74.2964 54.12C73.1714 54.12 72.8864 54.315 72.8864 54.795C72.8864 55.185 73.0964 55.35 74.0864 55.47L75.6914 55.665C77.7014 55.89 78.4514 56.565 78.4514 57.81C78.4514 59.22 77.0564 60.15 74.7314 60.15ZM81.6093 60H79.3593V49.95H81.6093V54.78H81.7293C81.9693 53.505 82.8543 52.335 84.7743 52.335C86.7993 52.335 87.7893 53.655 87.7893 55.395V60H85.5393V56.07C85.5393 54.81 84.9993 54.36 83.5893 54.36C82.0743 54.36 81.6093 54.975 81.6093 56.235V60ZM91.2347 60.15C89.6147 60.15 88.6397 59.4 88.6397 58.14C88.6397 57.03 89.4647 56.34 91.0697 56.175L94.2947 55.845V55.56C94.2947 54.585 93.8597 54.315 92.6597 54.315C91.5197 54.315 91.0547 54.615 91.0547 55.47V55.53H88.7897V55.485C88.7897 53.625 90.3497 52.335 92.8247 52.335C95.3297 52.335 96.5147 53.625 96.5147 55.59V60H94.4147V58.275H94.2947C93.9497 59.445 92.8997 60.15 91.2347 60.15ZM90.9047 57.99C90.9047 58.395 91.2197 58.56 91.8797 58.56C93.4097 58.56 94.2347 58.2 94.2947 57.135L91.6847 57.435C91.1447 57.48 90.9047 57.63 90.9047 57.99ZM99.9052 60H97.6552V52.485H99.7402V54.48H99.8752C100.085 53.265 100.88 52.335 102.395 52.335C104.075 52.335 104.765 53.49 104.765 54.96V56.205H102.515V55.425C102.515 54.6 102.185 54.24 101.27 54.24C100.265 54.24 99.9052 54.705 99.9052 55.65V60ZM107.83 51.72H105.58V49.95H107.83V51.72ZM107.83 60H105.58V52.485H107.83V60ZM111.258 60H109.008V52.485H111.093V54.795H111.228C111.423 53.535 112.323 52.335 114.288 52.335C116.343 52.335 117.318 53.655 117.318 55.32V60H115.068V56.07C115.068 54.87 114.573 54.36 113.193 54.36C111.768 54.36 111.258 54.93 111.258 56.205V60ZM121.756 59.235C119.521 59.235 118.231 57.9 118.231 55.785C118.231 53.685 119.596 52.335 121.846 52.335C123.376 52.335 124.471 52.995 124.711 54.3H124.831V52.485H126.931V58.905C126.931 61.53 125.341 62.7 122.656 62.7C120.226 62.7 118.696 61.62 118.696 59.73H120.946C120.946 60.57 121.276 60.825 122.806 60.825C124.246 60.825 124.681 60.525 124.681 59.055V57.36H124.561C124.321 58.47 123.436 59.235 121.756 59.235ZM120.496 55.785C120.496 56.895 121.126 57.3 122.536 57.3C123.976 57.3 124.681 56.895 124.681 55.86V55.695C124.681 54.675 123.961 54.285 122.566 54.285C121.126 54.285 120.496 54.675 120.496 55.785ZM134.443 60.15C131.863 60.15 130.213 58.62 130.213 56.25C130.213 53.85 131.863 52.335 134.443 52.335C136.858 52.335 138.508 53.625 138.508 55.575V55.785H136.273V55.665C136.273 54.705 135.568 54.36 134.398 54.36C133.063 54.36 132.448 54.855 132.448 56.25C132.448 57.63 133.063 58.125 134.398 58.125C135.568 58.125 136.273 57.78 136.273 56.82V56.7H138.508V56.91C138.508 58.845 136.858 60.15 134.443 60.15ZM143.481 60.15C140.916 60.15 139.191 58.62 139.191 56.25C139.191 53.85 140.916 52.335 143.481 52.335C146.046 52.335 147.771 53.85 147.771 56.25C147.771 58.62 146.046 60.15 143.481 60.15ZM143.481 58.155C144.996 58.155 145.536 57.57 145.536 56.25C145.536 54.93 144.996 54.315 143.481 54.315C141.951 54.315 141.426 54.93 141.426 56.25C141.426 57.57 141.951 58.155 143.481 58.155ZM150.94 60H148.69V52.485H150.775V54.795H150.91C151.105 53.535 152.005 52.335 153.97 52.335C156.025 52.335 157 53.655 157 55.32V60H154.75V56.07C154.75 54.87 154.255 54.36 152.875 54.36C151.45 54.36 150.94 54.93 150.94 56.205V60ZM160.989 60H158.739V54.345H157.674V52.485H158.784C159.024 50.97 160.344 49.95 162.654 49.95H163.314V51.585H162.294C161.304 51.585 160.839 51.75 160.899 52.485H163.314V54.345H160.989V60ZM166.314 51.72H164.064V49.95H166.314V51.72ZM166.314 60H164.064V52.485H166.314V60ZM170.859 60.15C168.519 60.15 167.229 58.62 167.229 56.25C167.229 53.85 168.504 52.335 170.739 52.335C172.524 52.335 173.439 53.22 173.694 54.48H173.829V49.95H176.079V60H173.979V57.915H173.859C173.574 59.4 172.584 60.15 170.859 60.15ZM169.509 56.25C169.509 57.615 170.184 58.095 171.624 58.095C173.049 58.095 173.829 57.6 173.829 56.295V56.175C173.829 54.87 173.064 54.39 171.624 54.39C170.184 54.39 169.509 54.87 169.509 56.25ZM181.259 60.15C178.754 60.15 177.044 58.92 177.044 56.25C177.044 53.85 178.739 52.335 181.214 52.335C183.674 52.335 185.309 53.625 185.309 55.98C185.309 56.25 185.279 56.445 185.249 56.7H179.129C179.189 57.855 179.729 58.35 181.184 58.35C182.519 58.35 182.984 58.005 182.984 57.36V57.21H185.234V57.375C185.234 59.01 183.644 60.15 181.259 60.15ZM181.169 54.09C179.834 54.09 179.264 54.54 179.159 55.515H183.149C183.089 54.525 182.489 54.09 181.169 54.09ZM188.514 60H186.264V52.485H188.349V54.795H188.484C188.679 53.535 189.579 52.335 191.544 52.335C193.599 52.335 194.574 53.655 194.574 55.32V60H192.324V56.07C192.324 54.87 191.829 54.36 190.449 54.36C189.024 54.36 188.514 54.93 188.514 56.205V60ZM201.007 60H199.147C197.392 60 196.327 59.175 196.327 57.285V54.345H195.142V52.485H196.327V51.03H198.577V52.485H201.007V54.345H198.577V57.03C198.577 57.78 198.862 57.975 199.657 57.975H201.007V60ZM204.1 51.72H201.85V49.95H204.1V51.72ZM204.1 60H201.85V52.485H204.1V60ZM207.587 60.15C205.967 60.15 204.992 59.4 204.992 58.14C204.992 57.03 205.817 56.34 207.422 56.175L210.647 55.845V55.56C210.647 54.585 210.212 54.315 209.012 54.315C207.872 54.315 207.407 54.615 207.407 55.47V55.53H205.142V55.485C205.142 53.625 206.702 52.335 209.177 52.335C211.682 52.335 212.867 53.625 212.867 55.59V60H210.767V58.275H210.647C210.302 59.445 209.252 60.15 207.587 60.15ZM207.257 57.99C207.257 58.395 207.572 58.56 208.232 58.56C209.762 58.56 210.587 58.2 210.647 57.135L208.037 57.435C207.497 57.48 207.257 57.63 207.257 57.99ZM216.258 60H214.008V49.95H216.258V60ZM222 51.72H219.75V49.95H222V51.72ZM222 60H219.75V52.485H222V60ZM225.428 60H223.178V52.485H225.263V54.795H225.398C225.593 53.535 226.493 52.335 228.458 52.335C230.513 52.335 231.488 53.655 231.488 55.32V60H229.238V56.07C229.238 54.87 228.743 54.36 227.363 54.36C225.938 54.36 225.428 54.93 225.428 56.205V60ZM235.476 60H233.226V54.345H232.161V52.485H233.271C233.511 50.97 234.831 49.95 237.141 49.95H237.801V51.585H236.781C235.791 51.585 235.326 51.75 235.386 52.485H237.801V54.345H235.476V60ZM242.549 60.15C239.984 60.15 238.259 58.62 238.259 56.25C238.259 53.85 239.984 52.335 242.549 52.335C245.114 52.335 246.839 53.85 246.839 56.25C246.839 58.62 245.114 60.15 242.549 60.15ZM242.549 58.155C244.064 58.155 244.604 57.57 244.604 56.25C244.604 54.93 244.064 54.315 242.549 54.315C241.019 54.315 240.494 54.93 240.494 56.25C240.494 57.57 241.019 58.155 242.549 58.155ZM250.008 60H247.758V52.485H249.843V54.48H249.978C250.188 53.265 250.983 52.335 252.498 52.335C254.178 52.335 254.868 53.49 254.868 54.96V56.205H252.618V55.425C252.618 54.6 252.288 54.24 251.373 54.24C250.368 54.24 250.008 54.705 250.008 55.65V60ZM257.933 60H255.683V52.485H257.768V54.765H257.888C258.068 53.505 258.818 52.335 260.708 52.335C262.448 52.335 263.333 53.4 263.498 54.795H263.633C263.813 53.52 264.578 52.335 266.513 52.335C268.448 52.335 269.393 53.61 269.393 55.32V60H267.143V56.07C267.143 54.825 266.708 54.36 265.418 54.36C264.053 54.36 263.663 54.9 263.663 56.205V60H261.413V56.07C261.413 54.825 260.978 54.36 259.688 54.36C258.323 54.36 257.933 54.9 257.933 56.205V60ZM272.846 60.15C271.226 60.15 270.251 59.4 270.251 58.14C270.251 57.03 271.076 56.34 272.681 56.175L275.906 55.845V55.56C275.906 54.585 275.471 54.315 274.271 54.315C273.131 54.315 272.666 54.615 272.666 55.47V55.53H270.401V55.485C270.401 53.625 271.961 52.335 274.436 52.335C276.941 52.335 278.126 53.625 278.126 55.59V60H276.026V58.275H275.906C275.561 59.445 274.511 60.15 272.846 60.15ZM272.516 57.99C272.516 58.395 272.831 58.56 273.491 58.56C275.021 58.56 275.846 58.2 275.906 57.135L273.296 57.435C272.756 57.48 272.516 57.63 272.516 57.99ZM284.562 60H282.702C280.947 60 279.882 59.175 279.882 57.285V54.345H278.697V52.485H279.882V51.03H282.132V52.485H284.562V54.345H282.132V57.03C282.132 57.78 282.417 57.975 283.212 57.975H284.562V60ZM287.654 51.72H285.404V49.95H287.654V51.72ZM287.654 60H285.404V52.485H287.654V60ZM292.837 60.15C290.272 60.15 288.547 58.62 288.547 56.25C288.547 53.85 290.272 52.335 292.837 52.335C295.402 52.335 297.127 53.85 297.127 56.25C297.127 58.62 295.402 60.15 292.837 60.15ZM292.837 58.155C294.352 58.155 294.892 57.57 294.892 56.25C294.892 54.93 294.352 54.315 292.837 54.315C291.307 54.315 290.782 54.93 290.782 56.25C290.782 57.57 291.307 58.155 292.837 58.155ZM300.296 60H298.046V52.485H300.131V54.795H300.266C300.461 53.535 301.361 52.335 303.326 52.335C305.381 52.335 306.356 53.655 306.356 55.32V60H304.106V56.07C304.106 54.87 303.611 54.36 302.231 54.36C300.806 54.36 300.296 54.93 300.296 56.205V60ZM109.879 78H108.019C106.264 78 105.199 77.175 105.199 75.285V72.345H104.014V70.485H105.199V69.03H107.449V70.485H109.879V72.345H107.449V75.03C107.449 75.78 107.734 75.975 108.529 75.975H109.879V78ZM112.972 78H110.722V67.95H112.972V72.78H113.092C113.332 71.505 114.217 70.335 116.137 70.335C118.162 70.335 119.152 71.655 119.152 73.395V78H116.902V74.07C116.902 72.81 116.362 72.36 114.952 72.36C113.437 72.36 112.972 72.975 112.972 74.235V78ZM122.537 78H120.287V70.485H122.372V72.48H122.507C122.717 71.265 123.512 70.335 125.027 70.335C126.707 70.335 127.397 71.49 127.397 72.96V74.205H125.147V73.425C125.147 72.6 124.817 72.24 123.902 72.24C122.897 72.24 122.537 72.705 122.537 73.65V78ZM132.217 78.15C129.652 78.15 127.927 76.62 127.927 74.25C127.927 71.85 129.652 70.335 132.217 70.335C134.782 70.335 136.507 71.85 136.507 74.25C136.507 76.62 134.782 78.15 132.217 78.15ZM132.217 76.155C133.732 76.155 134.272 75.57 134.272 74.25C134.272 72.93 133.732 72.315 132.217 72.315C130.687 72.315 130.162 72.93 130.162 74.25C130.162 75.57 130.687 76.155 132.217 76.155ZM140.531 78.15C138.416 78.15 137.411 76.845 137.411 75.165V70.485H139.661V74.415C139.661 75.63 140.171 76.14 141.596 76.14C143.066 76.14 143.591 75.57 143.591 74.295V70.485H145.841V78H143.741V75.705H143.621C143.426 76.965 142.511 78.15 140.531 78.15ZM150.291 77.235C148.056 77.235 146.766 75.9 146.766 73.785C146.766 71.685 148.131 70.335 150.381 70.335C151.911 70.335 153.006 70.995 153.246 72.3H153.366V70.485H155.466V76.905C155.466 79.53 153.876 80.7 151.191 80.7C148.761 80.7 147.231 79.62 147.231 77.73H149.481C149.481 78.57 149.811 78.825 151.341 78.825C152.781 78.825 153.216 78.525 153.216 77.055V75.36H153.096C152.856 76.47 151.971 77.235 150.291 77.235ZM149.031 73.785C149.031 74.895 149.661 75.3 151.071 75.3C152.511 75.3 153.216 74.895 153.216 73.86V73.695C153.216 72.675 152.496 72.285 151.101 72.285C149.661 72.285 149.031 72.675 149.031 73.785ZM158.909 78H156.659V67.95H158.909V72.78H159.029C159.269 71.505 160.154 70.335 162.074 70.335C164.099 70.335 165.089 71.655 165.089 73.395V78H162.839V74.07C162.839 72.81 162.299 72.36 160.889 72.36C159.374 72.36 158.909 72.975 158.909 74.235V78ZM173.834 78H171.974C170.219 78 169.154 77.175 169.154 75.285V72.345H167.969V70.485H169.154V69.03H171.404V70.485H173.834V72.345H171.404V75.03C171.404 75.78 171.689 75.975 172.484 75.975H173.834V78ZM176.927 78H174.677V67.95H176.927V72.78H177.047C177.287 71.505 178.172 70.335 180.092 70.335C182.117 70.335 183.107 71.655 183.107 73.395V78H180.857V74.07C180.857 72.81 180.317 72.36 178.907 72.36C177.392 72.36 176.927 72.975 176.927 74.235V78ZM188.232 78.15C185.727 78.15 184.017 76.92 184.017 74.25C184.017 71.85 185.712 70.335 188.187 70.335C190.647 70.335 192.282 71.625 192.282 73.98C192.282 74.25 192.252 74.445 192.222 74.7H186.102C186.162 75.855 186.702 76.35 188.157 76.35C189.492 76.35 189.957 76.005 189.957 75.36V75.21H192.207V75.375C192.207 77.01 190.617 78.15 188.232 78.15ZM188.142 72.09C186.807 72.09 186.237 72.54 186.132 73.515H190.122C190.062 72.525 189.462 72.09 188.142 72.09ZM197.861 78.15C196.241 78.15 195.266 77.4 195.266 76.14C195.266 75.03 196.091 74.34 197.696 74.175L200.921 73.845V73.56C200.921 72.585 200.486 72.315 199.286 72.315C198.146 72.315 197.681 72.615 197.681 73.47V73.53H195.416V73.485C195.416 71.625 196.976 70.335 199.451 70.335C201.956 70.335 203.141 71.625 203.141 73.59V78H201.041V76.275H200.921C200.576 77.445 199.526 78.15 197.861 78.15ZM197.531 75.99C197.531 76.395 197.846 76.56 198.506 76.56C200.036 76.56 200.861 76.2 200.921 75.135L198.311 75.435C197.771 75.48 197.531 75.63 197.531 75.99ZM206.531 80.55H204.281V70.485H206.366V72.54H206.516C206.786 71.1 207.746 70.335 209.516 70.335C211.826 70.335 213.116 71.865 213.116 74.25C213.116 76.635 211.856 78.15 209.591 78.15C207.851 78.15 206.891 77.295 206.636 75.975H206.531V80.55ZM206.531 74.355C206.531 75.645 207.311 76.095 208.721 76.095C210.161 76.095 210.836 75.615 210.836 74.25C210.836 72.87 210.161 72.405 208.736 72.405C207.281 72.405 206.531 72.9 206.531 74.235V74.355ZM216.302 80.55H214.052V70.485H216.137V72.54H216.287C216.557 71.1 217.517 70.335 219.287 70.335C221.597 70.335 222.887 71.865 222.887 74.25C222.887 76.635 221.627 78.15 219.362 78.15C217.622 78.15 216.662 77.295 216.407 75.975H216.302V80.55ZM216.302 74.355C216.302 75.645 217.082 76.095 218.492 76.095C219.932 76.095 220.607 75.615 220.607 74.25C220.607 72.87 219.932 72.405 218.507 72.405C217.052 72.405 216.302 72.9 216.302 74.235V74.355ZM226.567 78H223.672V75.375H226.567V78Z" fill="#181818"/>
<path d="M20.3963 354H18.4333V351.114L14.5723 345.29H16.9773L18.6413 347.838L19.3693 349.008H19.5123L20.2403 347.838L21.9043 345.29H24.3223L20.3963 351.127V354ZM28.1643 354.13C25.9413 354.13 24.4463 352.804 24.4463 350.75C24.4463 348.67 25.9413 347.357 28.1643 347.357C30.3873 347.357 31.8823 348.67 31.8823 350.75C31.8823 352.804 30.3873 354.13 28.1643 354.13ZM28.1643 352.401C29.4773 352.401 29.9453 351.894 29.9453 350.75C29.9453 349.606 29.4773 349.073 28.1643 349.073C26.8383 349.073 26.3833 349.606 26.3833 350.75C26.3833 351.894 26.8383 352.401 28.1643 352.401ZM35.3697 354.13C33.5367 354.13 32.6657 352.999 32.6657 351.543V347.487H34.6157V350.893C34.6157 351.946 35.0577 352.388 36.2927 352.388C37.5667 352.388 38.0217 351.894 38.0217 350.789V347.487H39.9717V354H38.1517V352.011H38.0477C37.8787 353.103 37.0857 354.13 35.3697 354.13ZM42.9187 354H40.9687V347.487H42.7757V349.216H42.8927C43.0747 348.163 43.7637 347.357 45.0767 347.357C46.5327 347.357 47.1307 348.358 47.1307 349.632V350.711H45.1807V350.035C45.1807 349.32 44.8947 349.008 44.1017 349.008C43.2307 349.008 42.9187 349.411 42.9187 350.23V354ZM53.1318 354.13C50.9348 354.13 49.7258 353.272 49.7258 351.764V351.725H51.6758V351.842C51.6758 352.427 52.0398 352.583 53.1448 352.583C54.1848 352.583 54.4318 352.414 54.4318 352.024C54.4318 351.66 54.2368 351.556 53.4698 351.452L51.6368 351.231C50.3368 351.088 49.6088 350.503 49.6088 349.411C49.6088 348.267 50.5838 347.357 52.8198 347.357C54.9518 347.357 56.1608 348.163 56.1608 349.749V349.788H54.2108V349.71C54.2108 349.177 53.9508 348.904 52.7548 348.904C51.7798 348.904 51.5328 349.073 51.5328 349.489C51.5328 349.827 51.7148 349.97 52.5728 350.074L53.9638 350.243C55.7058 350.438 56.3558 351.023 56.3558 352.102C56.3558 353.324 55.1468 354.13 53.1318 354.13ZM59.8336 354.13C58.0006 354.13 57.1296 352.999 57.1296 351.543V347.487H59.0796V350.893C59.0796 351.946 59.5216 352.388 60.7566 352.388C62.0306 352.388 62.4856 351.894 62.4856 350.789V347.487H64.4356V354H62.6156V352.011H62.5116C62.3426 353.103 61.5496 354.13 59.8336 354.13ZM67.3826 356.21H65.4326V347.487H67.2396V349.268H67.3696C67.6036 348.02 68.4356 347.357 69.9696 347.357C71.9716 347.357 73.0896 348.683 73.0896 350.75C73.0896 352.817 71.9976 354.13 70.0346 354.13C68.5266 354.13 67.6946 353.389 67.4736 352.245H67.3826V356.21ZM67.3826 350.841C67.3826 351.959 68.0586 352.349 69.2806 352.349C70.5286 352.349 71.1136 351.933 71.1136 350.75C71.1136 349.554 70.5286 349.151 69.2936 349.151C68.0326 349.151 67.3826 349.58 67.3826 350.737V350.841ZM75.8504 356.21H73.9004V347.487H75.7074V349.268H75.8374C76.0714 348.02 76.9034 347.357 78.4374 347.357C80.4394 347.357 81.5574 348.683 81.5574 350.75C81.5574 352.817 80.4654 354.13 78.5024 354.13C76.9944 354.13 76.1624 353.389 75.9414 352.245H75.8504V356.21ZM75.8504 350.841C75.8504 351.959 76.5264 352.349 77.7484 352.349C78.9964 352.349 79.5814 351.933 79.5814 350.75C79.5814 349.554 78.9964 349.151 77.7614 349.151C76.5004 349.151 75.8504 349.58 75.8504 350.737V350.841ZM85.8391 354.13C83.6161 354.13 82.1211 352.804 82.1211 350.75C82.1211 348.67 83.6161 347.357 85.8391 347.357C88.0621 347.357 89.5571 348.67 89.5571 350.75C89.5571 352.804 88.0621 354.13 85.8391 354.13ZM85.8391 352.401C87.1521 352.401 87.6201 351.894 87.6201 350.75C87.6201 349.606 87.1521 349.073 85.8391 349.073C84.5131 349.073 84.0581 349.606 84.0581 350.75C84.0581 351.894 84.5131 352.401 85.8391 352.401ZM92.3035 354H90.3535V347.487H92.1605V349.216H92.2775C92.4595 348.163 93.1485 347.357 94.4615 347.357C95.9175 347.357 96.5155 348.358 96.5155 349.632V350.711H94.5655V350.035C94.5655 349.32 94.2795 349.008 93.4865 349.008C92.6155 349.008 92.3035 349.411 92.3035 350.23V354ZM101.811 354H100.199C98.6777 354 97.7547 353.285 97.7547 351.647V349.099H96.7277V347.487H97.7547V346.226H99.7047V347.487H101.811V349.099H99.7047V351.426C99.7047 352.076 99.9517 352.245 100.641 352.245H101.811V354ZM106.497 346.824H104.547V345.29H106.497V346.824ZM106.497 354H104.547V347.487H106.497V354ZM110.807 354.13C108.61 354.13 107.401 353.272 107.401 351.764V351.725H109.351V351.842C109.351 352.427 109.715 352.583 110.82 352.583C111.86 352.583 112.107 352.414 112.107 352.024C112.107 351.66 111.912 351.556 111.145 351.452L109.312 351.231C108.012 351.088 107.284 350.503 107.284 349.411C107.284 348.267 108.259 347.357 110.495 347.357C112.627 347.357 113.836 348.163 113.836 349.749V349.788H111.886V349.71C111.886 349.177 111.626 348.904 110.43 348.904C109.455 348.904 109.208 349.073 109.208 349.489C109.208 349.827 109.39 349.97 110.248 350.074L111.639 350.243C113.381 350.438 114.031 351.023 114.031 352.102C114.031 353.324 112.822 354.13 110.807 354.13ZM120.294 354.13C118.058 354.13 116.628 352.804 116.628 350.75C116.628 348.67 118.058 347.357 120.294 347.357C122.387 347.357 123.817 348.475 123.817 350.165V350.347H121.88V350.243C121.88 349.411 121.269 349.112 120.255 349.112C119.098 349.112 118.565 349.541 118.565 350.75C118.565 351.946 119.098 352.375 120.255 352.375C121.269 352.375 121.88 352.076 121.88 351.244V351.14H123.817V351.322C123.817 352.999 122.387 354.13 120.294 354.13ZM126.606 354H124.656V347.487H126.463V349.216H126.58C126.762 348.163 127.451 347.357 128.764 347.357C130.22 347.357 130.818 348.358 130.818 349.632V350.711H128.868V350.035C128.868 349.32 128.582 349.008 127.789 349.008C126.918 349.008 126.606 349.411 126.606 350.23V354ZM134.215 354.13C132.382 354.13 131.511 352.999 131.511 351.543V347.487H133.461V350.893C133.461 351.946 133.903 352.388 135.138 352.388C136.412 352.388 136.867 351.894 136.867 350.789V347.487H138.817V354H136.997V352.011H136.893C136.724 353.103 135.931 354.13 134.215 354.13ZM143.285 354.13C141.049 354.13 139.619 352.804 139.619 350.75C139.619 348.67 141.049 347.357 143.285 347.357C145.378 347.357 146.808 348.475 146.808 350.165V350.347H144.871V350.243C144.871 349.411 144.26 349.112 143.246 349.112C142.089 349.112 141.556 349.541 141.556 350.75C141.556 351.946 142.089 352.375 143.246 352.375C144.26 352.375 144.871 352.076 144.871 351.244V351.14H146.808V351.322C146.808 352.999 145.378 354.13 143.285 354.13ZM149.597 346.824H147.647V345.29H149.597V346.824ZM149.597 354H147.647V347.487H149.597V354ZM152.62 354.13C151.216 354.13 150.371 353.48 150.371 352.388C150.371 351.426 151.086 350.828 152.477 350.685L155.272 350.399V350.152C155.272 349.307 154.895 349.073 153.855 349.073C152.867 349.073 152.464 349.333 152.464 350.074V350.126H150.501V350.087C150.501 348.475 151.853 347.357 153.998 347.357C156.169 347.357 157.196 348.475 157.196 350.178V354H155.376V352.505H155.272C154.973 353.519 154.063 354.13 152.62 354.13ZM152.334 352.258C152.334 352.609 152.607 352.752 153.179 352.752C154.505 352.752 155.22 352.44 155.272 351.517L153.01 351.777C152.542 351.816 152.334 351.946 152.334 352.258ZM160.135 354H158.185V345.29H160.135V354ZM165.631 354H163.681V349.099H162.758V347.487H163.72C163.928 346.174 165.072 345.29 167.074 345.29H167.646V346.707H166.762C165.904 346.707 165.501 346.85 165.553 347.487H167.646V349.099H165.631V354ZM171.761 354.13C169.538 354.13 168.043 352.804 168.043 350.75C168.043 348.67 169.538 347.357 171.761 347.357C173.984 347.357 175.479 348.67 175.479 350.75C175.479 352.804 173.984 354.13 171.761 354.13ZM171.761 352.401C173.074 352.401 173.542 351.894 173.542 350.75C173.542 349.606 173.074 349.073 171.761 349.073C170.435 349.073 169.98 349.606 169.98 350.75C169.98 351.894 170.435 352.401 171.761 352.401ZM178.225 354H176.275V347.487H178.082V349.216H178.199C178.381 348.163 179.07 347.357 180.383 347.357C181.839 347.357 182.437 348.358 182.437 349.632V350.711H180.487V350.035C180.487 349.32 180.201 349.008 179.408 349.008C178.537 349.008 178.225 349.411 178.225 350.23V354ZM187.099 354H185.149V345.29H187.229L190.349 349.411L191.545 351.244H191.688L191.597 349.489V345.29H193.547V354H191.467L188.256 349.84L187.151 348.202H187.021L187.099 349.801V354ZM198.04 354.13C195.869 354.13 194.387 353.064 194.387 350.75C194.387 348.67 195.856 347.357 198.001 347.357C200.133 347.357 201.55 348.475 201.55 350.516C201.55 350.75 201.524 350.919 201.498 351.14H196.194C196.246 352.141 196.714 352.57 197.975 352.57C199.132 352.57 199.535 352.271 199.535 351.712V351.582H201.485V351.725C201.485 353.142 200.107 354.13 198.04 354.13ZM197.962 348.878C196.805 348.878 196.311 349.268 196.22 350.113H199.678C199.626 349.255 199.106 348.878 197.962 348.878ZM204.184 354H202.377V345.29H204.327V349.216H204.431C204.652 348.124 205.445 347.357 206.992 347.357C208.942 347.357 210.034 348.67 210.034 350.75C210.034 352.804 208.929 354.13 206.901 354.13C205.393 354.13 204.535 353.48 204.301 352.193H204.184V354ZM204.327 350.789C204.327 351.92 204.99 352.349 206.225 352.349C207.486 352.349 208.058 351.933 208.058 350.75C208.058 349.554 207.486 349.138 206.238 349.138C204.977 349.138 204.327 349.554 204.327 350.685V350.789ZM213.536 354.13C211.703 354.13 210.832 352.999 210.832 351.543V347.487H212.782V350.893C212.782 351.946 213.224 352.388 214.459 352.388C215.733 352.388 216.188 351.894 216.188 350.789V347.487H218.138V354H216.318V352.011H216.214C216.045 353.103 215.252 354.13 213.536 354.13ZM221.085 354H219.135V345.29H221.085V354ZM224.107 354.13C222.703 354.13 221.858 353.48 221.858 352.388C221.858 351.426 222.573 350.828 223.964 350.685L226.759 350.399V350.152C226.759 349.307 226.382 349.073 225.342 349.073C224.354 349.073 223.951 349.333 223.951 350.074V350.126H221.988V350.087C221.988 348.475 223.34 347.357 225.485 347.357C227.656 347.357 228.683 348.475 228.683 350.178V354H226.863V352.505H226.759C226.46 353.519 225.55 354.13 224.107 354.13ZM223.821 352.258C223.821 352.609 224.094 352.752 224.666 352.752C225.992 352.752 226.707 352.44 226.759 351.517L224.497 351.777C224.029 351.816 223.821 351.946 223.821 352.258ZM233.277 354H231.093L234.902 345.29H237.684L241.519 354H239.283L238.464 352.076H234.109L233.277 354ZM235.682 348.423L234.863 350.321H237.71L236.891 348.423L236.358 347.071H236.215L235.682 348.423ZM243.924 356.21H241.974V347.487H243.781V349.268H243.911C244.145 348.02 244.977 347.357 246.511 347.357C248.513 347.357 249.631 348.683 249.631 350.75C249.631 352.817 248.539 354.13 246.576 354.13C245.068 354.13 244.236 353.389 244.015 352.245H243.924V356.21ZM243.924 350.841C243.924 351.959 244.6 352.349 245.822 352.349C247.07 352.349 247.655 351.933 247.655 350.75C247.655 349.554 247.07 349.151 245.835 349.151C244.574 349.151 243.924 349.58 243.924 350.737V350.841ZM252.391 356.21H250.441V347.487H252.248V349.268H252.378C252.612 348.02 253.444 347.357 254.978 347.357C256.98 347.357 258.098 348.683 258.098 350.75C258.098 352.817 257.006 354.13 255.043 354.13C253.535 354.13 252.703 353.389 252.482 352.245H252.391V356.21ZM252.391 350.841C252.391 351.959 253.067 352.349 254.289 352.349C255.537 352.349 256.122 351.933 256.122 350.75C256.122 349.554 255.537 349.151 254.302 349.151C253.041 349.151 252.391 349.58 252.391 350.737V350.841ZM260.3 349.047H259.091L258.675 347.175V345.29H260.703V347.175L260.3 349.047ZM264.801 354.13C262.604 354.13 261.395 353.272 261.395 351.764V351.725H263.345V351.842C263.345 352.427 263.709 352.583 264.814 352.583C265.854 352.583 266.101 352.414 266.101 352.024C266.101 351.66 265.906 351.556 265.139 351.452L263.306 351.231C262.006 351.088 261.278 350.503 261.278 349.411C261.278 348.267 262.253 347.357 264.489 347.357C266.621 347.357 267.83 348.163 267.83 349.749V349.788H265.88V349.71C265.88 349.177 265.62 348.904 264.424 348.904C263.449 348.904 263.202 349.073 263.202 349.489C263.202 349.827 263.384 349.97 264.242 350.074L265.633 350.243C267.375 350.438 268.025 351.023 268.025 352.102C268.025 353.324 266.816 354.13 264.801 354.13ZM273.677 353.337C271.74 353.337 270.622 352.18 270.622 350.347C270.622 348.527 271.805 347.357 273.755 347.357C275.081 347.357 276.03 347.929 276.238 349.06H276.342V347.487H278.162V353.051C278.162 355.326 276.784 356.34 274.457 356.34C272.351 356.34 271.025 355.404 271.025 353.766H272.975C272.975 354.494 273.261 354.715 274.587 354.715C275.835 354.715 276.212 354.455 276.212 353.181V351.712H276.108C275.9 352.674 275.133 353.337 273.677 353.337ZM272.585 350.347C272.585 351.309 273.131 351.66 274.353 351.66C275.601 351.66 276.212 351.309 276.212 350.412V350.269C276.212 349.385 275.588 349.047 274.379 349.047C273.131 349.047 272.585 349.385 272.585 350.347ZM281.146 354H279.196V347.487H281.003V349.216H281.12C281.302 348.163 281.991 347.357 283.304 347.357C284.76 347.357 285.358 348.358 285.358 349.632V350.711H283.408V350.035C283.408 349.32 283.122 349.008 282.329 349.008C281.458 349.008 281.146 349.411 281.146 350.23V354ZM289.535 354.13C287.312 354.13 285.817 352.804 285.817 350.75C285.817 348.67 287.312 347.357 289.535 347.357C291.758 347.357 293.253 348.67 293.253 350.75C293.253 352.804 291.758 354.13 289.535 354.13ZM289.535 352.401C290.848 352.401 291.316 351.894 291.316 350.75C291.316 349.606 290.848 349.073 289.535 349.073C288.209 349.073 287.754 349.606 287.754 350.75C287.754 351.894 288.209 352.401 289.535 352.401ZM297.742 354H295.311L293.53 347.487H295.545L296.312 350.464L296.585 352.492H296.715L297.235 350.269L298.223 347.487H300.732L301.707 350.269L302.227 352.492H302.357L302.643 350.464L303.397 347.487H305.386L303.54 354H301.109L299.991 350.867L299.51 349.073H299.367L298.873 350.867L297.742 354ZM310.496 354H308.884C307.363 354 306.44 353.285 306.44 351.647V349.099H305.413V347.487H306.44V346.226H308.39V347.487H310.496V349.099H308.39V351.426C308.39 352.076 308.637 352.245 309.326 352.245H310.496V354ZM313.177 354H311.227V345.29H313.177V349.476H313.281C313.489 348.371 314.256 347.357 315.92 347.357C317.675 347.357 318.533 348.501 318.533 350.009V354H316.583V350.594C316.583 349.502 316.115 349.112 314.893 349.112C313.58 349.112 313.177 349.645 313.177 350.737V354ZM321.896 354H319.387V351.725H321.896V354ZM13.6615 370H11.6985V367.114L7.83747 361.29H10.2425L11.9065 363.838L12.6345 365.008H12.7775L13.5055 363.838L15.1695 361.29H17.5875L13.6615 367.127V370ZM21.4295 370.13C19.2065 370.13 17.7115 368.804 17.7115 366.75C17.7115 364.67 19.2065 363.357 21.4295 363.357C23.6525 363.357 25.1475 364.67 25.1475 366.75C25.1475 368.804 23.6525 370.13 21.4295 370.13ZM21.4295 368.401C22.7425 368.401 23.2105 367.894 23.2105 366.75C23.2105 365.606 22.7425 365.073 21.4295 365.073C20.1035 365.073 19.6485 365.606 19.6485 366.75C19.6485 367.894 20.1035 368.401 21.4295 368.401ZM28.6348 370.13C26.8018 370.13 25.9308 368.999 25.9308 367.543V363.487H27.8808V366.893C27.8808 367.946 28.3228 368.388 29.5578 368.388C30.8318 368.388 31.2868 367.894 31.2868 366.789V363.487H33.2368V370H31.4168V368.011H31.3128C31.1438 369.103 30.3508 370.13 28.6348 370.13ZM36.1839 370H34.2339V363.487H36.0409V365.216H36.1579C36.3399 364.163 37.0289 363.357 38.3419 363.357C39.7979 363.357 40.3959 364.358 40.3959 365.632V366.711H38.4459V366.035C38.4459 365.32 38.1599 365.008 37.3669 365.008C36.4959 365.008 36.1839 365.411 36.1839 366.23V370ZM45.5779 370H43.6279V365.099H42.7049V363.487H43.6669C43.8749 362.174 45.0189 361.29 47.0209 361.29H47.5929V362.707H46.7089C45.8509 362.707 45.4479 362.85 45.4999 363.487H47.5929V365.099H45.5779V370ZM51.6948 370.13C49.5238 370.13 48.0418 369.064 48.0418 366.75C48.0418 364.67 49.5108 363.357 51.6558 363.357C53.7878 363.357 55.2048 364.475 55.2048 366.516C55.2048 366.75 55.1788 366.919 55.1528 367.14H49.8488C49.9008 368.141 50.3688 368.57 51.6298 368.57C52.7868 368.57 53.1898 368.271 53.1898 367.712V367.582H55.1398V367.725C55.1398 369.142 53.7618 370.13 51.6948 370.13ZM51.6168 364.878C50.4598 364.878 49.9658 365.268 49.8748 366.113H53.3328C53.2808 365.255 52.7608 364.878 51.6168 364.878ZM59.4897 370.13C57.3187 370.13 55.8367 369.064 55.8367 366.75C55.8367 364.67 57.3057 363.357 59.4507 363.357C61.5827 363.357 62.9997 364.475 62.9997 366.516C62.9997 366.75 62.9737 366.919 62.9477 367.14H57.6437C57.6957 368.141 58.1637 368.57 59.4247 368.57C60.5817 368.57 60.9847 368.271 60.9847 367.712V367.582H62.9347V367.725C62.9347 369.142 61.5567 370.13 59.4897 370.13ZM59.4117 364.878C58.2547 364.878 57.7607 365.268 57.6697 366.113H61.1277C61.0757 365.255 60.5557 364.878 59.4117 364.878ZM66.7386 370.13C64.7106 370.13 63.5926 368.804 63.5926 366.75C63.5926 364.67 64.6976 363.357 66.6346 363.357C68.1816 363.357 68.9746 364.124 69.1956 365.216H69.3126V361.29H71.2626V370H69.4426V368.193H69.3386C69.0916 369.48 68.2336 370.13 66.7386 370.13ZM65.5686 366.75C65.5686 367.933 66.1536 368.349 67.4016 368.349C68.6366 368.349 69.3126 367.92 69.3126 366.789V366.685C69.3126 365.554 68.6496 365.138 67.4016 365.138C66.1536 365.138 65.5686 365.554 65.5686 366.75ZM74.1014 370H72.2944V361.29H74.2444V365.216H74.3484C74.5694 364.124 75.3624 363.357 76.9094 363.357C78.8594 363.357 79.9514 364.67 79.9514 366.75C79.9514 368.804 78.8464 370.13 76.8184 370.13C75.3104 370.13 74.4524 369.48 74.2184 368.193H74.1014V370ZM74.2444 366.789C74.2444 367.92 74.9074 368.349 76.1424 368.349C77.4034 368.349 77.9754 367.933 77.9754 366.75C77.9754 365.554 77.4034 365.138 76.1554 365.138C74.8944 365.138 74.2444 365.554 74.2444 366.685V366.789ZM82.7642 370.13C81.3602 370.13 80.5152 369.48 80.5152 368.388C80.5152 367.426 81.2302 366.828 82.6212 366.685L85.4162 366.399V366.152C85.4162 365.307 85.0392 365.073 83.9992 365.073C83.0112 365.073 82.6082 365.333 82.6082 366.074V366.126H80.6452V366.087C80.6452 364.475 81.9972 363.357 84.1422 363.357C86.3132 363.357 87.3402 364.475 87.3402 366.178V370H85.5202V368.505H85.4162C85.1172 369.519 84.2072 370.13 82.7642 370.13ZM82.4782 368.258C82.4782 368.609 82.7512 368.752 83.3232 368.752C84.6492 368.752 85.3642 368.44 85.4162 367.517L83.1542 367.777C82.6862 367.816 82.4782 367.946 82.4782 368.258ZM91.7996 370.13C89.5636 370.13 88.1336 368.804 88.1336 366.75C88.1336 364.67 89.5636 363.357 91.7996 363.357C93.8926 363.357 95.3226 364.475 95.3226 366.165V366.347H93.3856V366.243C93.3856 365.411 92.7746 365.112 91.7606 365.112C90.6036 365.112 90.0706 365.541 90.0706 366.75C90.0706 367.946 90.6036 368.375 91.7606 368.375C92.7746 368.375 93.3856 368.076 93.3856 367.244V367.14H95.3226V367.322C95.3226 368.999 93.8926 370.13 91.7996 370.13ZM98.1116 370H96.1616V361.29H98.1116V365.905H99.5936L101.258 363.487H103.572L101.193 366.633L103.533 370H101.232L99.6066 367.647H98.1116V370ZM109.743 370H107.312L105.531 363.487H107.546L108.313 366.464L108.586 368.492H108.716L109.236 366.269L110.224 363.487H112.733L113.708 366.269L114.228 368.492H114.358L114.644 366.464L115.398 363.487H117.387L115.541 370H113.11L111.992 366.867L111.511 365.073H111.368L110.874 366.867L109.743 370ZM119.859 362.824H117.909V361.29H119.859V362.824ZM119.859 370H117.909V363.487H119.859V370ZM122.829 370H120.879V361.29H122.829V370ZM125.8 370H123.85V361.29H125.8V370ZM132.116 370.13C129.919 370.13 128.71 369.272 128.71 367.764V367.725H130.66V367.842C130.66 368.427 131.024 368.583 132.129 368.583C133.169 368.583 133.416 368.414 133.416 368.024C133.416 367.66 133.221 367.556 132.454 367.452L130.621 367.231C129.321 367.088 128.593 366.503 128.593 365.411C128.593 364.267 129.568 363.357 131.804 363.357C133.936 363.357 135.145 364.163 135.145 365.749V365.788H133.195V365.71C133.195 365.177 132.935 364.904 131.739 364.904C130.764 364.904 130.517 365.073 130.517 365.489C130.517 365.827 130.699 365.97 131.557 366.074L132.948 366.243C134.69 366.438 135.34 367.023 135.34 368.102C135.34 369.324 134.131 370.13 132.116 370.13ZM138.076 370H136.126V361.29H138.076V365.476H138.18C138.388 364.371 139.155 363.357 140.819 363.357C142.574 363.357 143.432 364.501 143.432 366.009V370H141.482V366.594C141.482 365.502 141.014 365.112 139.792 365.112C138.479 365.112 138.076 365.645 138.076 366.737V370ZM146.418 370.13C145.014 370.13 144.169 369.48 144.169 368.388C144.169 367.426 144.884 366.828 146.275 366.685L149.07 366.399V366.152C149.07 365.307 148.693 365.073 147.653 365.073C146.665 365.073 146.262 365.333 146.262 366.074V366.126H144.299V366.087C144.299 364.475 145.651 363.357 147.796 363.357C149.967 363.357 150.994 364.475 150.994 366.178V370H149.174V368.505H149.07C148.771 369.519 147.861 370.13 146.418 370.13ZM146.132 368.258C146.132 368.609 146.405 368.752 146.977 368.752C148.303 368.752 149.018 368.44 149.07 367.517L146.808 367.777C146.34 367.816 146.132 367.946 146.132 368.258ZM153.933 372.21H151.983V363.487H153.79V365.268H153.92C154.154 364.02 154.986 363.357 156.52 363.357C158.522 363.357 159.64 364.683 159.64 366.75C159.64 368.817 158.548 370.13 156.585 370.13C155.077 370.13 154.245 369.389 154.024 368.245H153.933V372.21ZM153.933 366.841C153.933 367.959 154.609 368.349 155.831 368.349C157.079 368.349 157.664 367.933 157.664 366.75C157.664 365.554 157.079 365.151 155.844 365.151C154.583 365.151 153.933 365.58 153.933 366.737V366.841ZM163.909 370.13C161.738 370.13 160.256 369.064 160.256 366.75C160.256 364.67 161.725 363.357 163.87 363.357C166.002 363.357 167.419 364.475 167.419 366.516C167.419 366.75 167.393 366.919 167.367 367.14H162.063C162.115 368.141 162.583 368.57 163.844 368.57C165.001 368.57 165.404 368.271 165.404 367.712V367.582H167.354V367.725C167.354 369.142 165.976 370.13 163.909 370.13ZM163.831 364.878C162.674 364.878 162.18 365.268 162.089 366.113H165.547C165.495 365.255 164.975 364.878 163.831 364.878ZM172.201 362.824H170.251V361.29H172.201V362.824ZM172.201 370H170.251V363.487H172.201V370ZM177.811 370H176.199C174.678 370 173.755 369.285 173.755 367.647V365.099H172.728V363.487H173.755V362.226H175.705V363.487H177.811V365.099H175.705V367.426C175.705 368.076 175.952 368.245 176.641 368.245H177.811V370ZM181.83 370.13C179.633 370.13 178.424 369.272 178.424 367.764V367.725H180.374V367.842C180.374 368.427 180.738 368.583 181.843 368.583C182.883 368.583 183.13 368.414 183.13 368.024C183.13 367.66 182.935 367.556 182.168 367.452L180.335 367.231C179.035 367.088 178.307 366.503 178.307 365.411C178.307 364.267 179.282 363.357 181.518 363.357C183.65 363.357 184.859 364.163 184.859 365.749V365.788H182.909V365.71C182.909 365.177 182.649 364.904 181.453 364.904C180.478 364.904 180.231 365.073 180.231 365.489C180.231 365.827 180.413 365.97 181.271 366.074L182.662 366.243C184.404 366.438 185.054 367.023 185.054 368.102C185.054 369.324 183.845 370.13 181.83 370.13ZM190.317 370H188.367V365.099H187.444V363.487H188.406C188.614 362.174 189.758 361.29 191.76 361.29H192.332V362.707H191.448C190.59 362.707 190.187 362.85 190.239 363.487H192.332V365.099H190.317V370ZM195.667 370.13C193.834 370.13 192.963 368.999 192.963 367.543V363.487H194.913V366.893C194.913 367.946 195.355 368.388 196.59 368.388C197.864 368.388 198.319 367.894 198.319 366.789V363.487H200.269V370H198.449V368.011H198.345C198.176 369.103 197.383 370.13 195.667 370.13ZM205.855 370H204.243C202.722 370 201.799 369.285 201.799 367.647V365.099H200.772V363.487H201.799V362.226H203.749V363.487H205.855V365.099H203.749V367.426C203.749 368.076 203.996 368.245 204.685 368.245H205.855V370ZM209.276 370.13C207.443 370.13 206.572 368.999 206.572 367.543V363.487H208.522V366.893C208.522 367.946 208.964 368.388 210.199 368.388C211.473 368.388 211.928 367.894 211.928 366.789V363.487H213.878V370H212.058V368.011H211.954C211.785 369.103 210.992 370.13 209.276 370.13ZM216.825 370H214.875V363.487H216.682V365.216H216.799C216.981 364.163 217.67 363.357 218.983 363.357C220.439 363.357 221.037 364.358 221.037 365.632V366.711H219.087V366.035C219.087 365.32 218.801 365.008 218.008 365.008C217.137 365.008 216.825 365.411 216.825 366.23V370ZM225.202 370.13C223.031 370.13 221.549 369.064 221.549 366.75C221.549 364.67 223.018 363.357 225.163 363.357C227.295 363.357 228.712 364.475 228.712 366.516C228.712 366.75 228.686 366.919 228.66 367.14H223.356C223.408 368.141 223.876 368.57 225.137 368.57C226.294 368.57 226.697 368.271 226.697 367.712V367.582H228.647V367.725C228.647 369.142 227.269 370.13 225.202 370.13ZM225.124 364.878C223.967 364.878 223.473 365.268 223.382 366.113H226.84C226.788 365.255 226.268 364.878 225.124 364.878ZM231.918 370H229.409V367.725H231.918V370ZM239.682 370H237.732V363.045H234.495V361.29H242.919V363.045H239.682V370ZM247.089 370.13C244.866 370.13 243.371 368.804 243.371 366.75C243.371 364.67 244.866 363.357 247.089 363.357C249.312 363.357 250.807 364.67 250.807 366.75C250.807 368.804 249.312 370.13 247.089 370.13ZM247.089 368.401C248.402 368.401 248.87 367.894 248.87 366.75C248.87 365.606 248.402 365.073 247.089 365.073C245.763 365.073 245.308 365.606 245.308 366.75C245.308 367.894 245.763 368.401 247.089 368.401ZM254.463 369.337C252.526 369.337 251.408 368.18 251.408 366.347C251.408 364.527 252.591 363.357 254.541 363.357C255.867 363.357 256.816 363.929 257.024 365.06H257.128V363.487H258.948V369.051C258.948 371.326 257.57 372.34 255.243 372.34C253.137 372.34 251.811 371.404 251.811 369.766H253.761C253.761 370.494 254.047 370.715 255.373 370.715C256.621 370.715 256.998 370.455 256.998 369.181V367.712H256.894C256.686 368.674 255.919 369.337 254.463 369.337ZM253.371 366.347C253.371 367.309 253.917 367.66 255.139 367.66C256.387 367.66 256.998 367.309 256.998 366.412V366.269C256.998 365.385 256.374 365.047 255.165 365.047C253.917 365.047 253.371 365.385 253.371 366.347ZM263.44 370.13C261.269 370.13 259.787 369.064 259.787 366.75C259.787 364.67 261.256 363.357 263.401 363.357C265.533 363.357 266.95 364.475 266.95 366.516C266.95 366.75 266.924 366.919 266.898 367.14H261.594C261.646 368.141 262.114 368.57 263.375 368.57C264.532 368.57 264.935 368.271 264.935 367.712V367.582H266.885V367.725C266.885 369.142 265.507 370.13 263.44 370.13ZM263.362 364.878C262.205 364.878 261.711 365.268 261.62 366.113H265.078C265.026 365.255 264.506 364.878 263.362 364.878ZM272.366 370H270.754C269.233 370 268.31 369.285 268.31 367.647V365.099H267.283V363.487H268.31V362.226H270.26V363.487H272.366V365.099H270.26V367.426C270.26 368.076 270.507 368.245 271.196 368.245H272.366V370ZM275.046 370H273.096V361.29H275.046V365.476H275.15C275.358 364.371 276.125 363.357 277.789 363.357C279.544 363.357 280.402 364.501 280.402 366.009V370H278.452V366.594C278.452 365.502 277.984 365.112 276.762 365.112C275.449 365.112 275.046 365.645 275.046 366.737V370ZM284.844 370.13C282.673 370.13 281.191 369.064 281.191 366.75C281.191 364.67 282.66 363.357 284.805 363.357C286.937 363.357 288.354 364.475 288.354 366.516C288.354 366.75 288.328 366.919 288.302 367.14H282.998C283.05 368.141 283.518 368.57 284.779 368.57C285.936 368.57 286.339 368.271 286.339 367.712V367.582H288.289V367.725C288.289 369.142 286.911 370.13 284.844 370.13ZM284.766 364.878C283.609 364.878 283.115 365.268 283.024 366.113H286.482C286.43 365.255 285.91 364.878 284.766 364.878ZM291.131 370H289.181V363.487H290.988V365.216H291.105C291.287 364.163 291.976 363.357 293.289 363.357C294.745 363.357 295.343 364.358 295.343 365.632V366.711H293.393V366.035C293.393 365.32 293.107 365.008 292.314 365.008C291.443 365.008 291.131 365.411 291.131 366.23V370ZM296.686 371.833H295.997V370.624H296.634C296.894 370.624 297.024 370.559 297.024 370.221V370H295.919V367.725H298.428V370.208C298.428 371.3 297.791 371.833 296.686 371.833ZM305.035 370H302.604L300.823 363.487H302.838L303.605 366.464L303.878 368.492H304.008L304.528 366.269L305.516 363.487H308.025L309 366.269L309.52 368.492H309.65L309.936 366.464L310.69 363.487H312.679L310.833 370H308.402L307.284 366.867L306.803 365.073H306.66L306.166 366.867L305.035 370ZM316.659 370.13C314.488 370.13 313.006 369.064 313.006 366.75C313.006 364.67 314.475 363.357 316.62 363.357C318.752 363.357 320.169 364.475 320.169 366.516C320.169 366.75 320.143 366.919 320.117 367.14H314.813C314.865 368.141 315.333 368.57 316.594 368.57C317.751 368.57 318.154 368.271 318.154 367.712V367.582H320.104V367.725C320.104 369.142 318.726 370.13 316.659 370.13ZM316.581 364.878C315.424 364.878 314.93 365.268 314.839 366.113H318.297C318.245 365.255 317.725 364.878 316.581 364.878ZM322.387 365.047H321.178L320.762 363.175V361.29H322.79V363.175L322.387 365.047ZM325.548 370H323.598V361.29H325.548V370ZM328.519 370H326.569V361.29H328.519V370ZM64.0349 386.13C61.7989 386.13 60.3689 384.804 60.3689 382.75C60.3689 380.67 61.7989 379.357 64.0349 379.357C66.1279 379.357 67.5579 380.475 67.5579 382.165V382.347H65.6209V382.243C65.6209 381.411 65.0099 381.112 63.9959 381.112C62.8389 381.112 62.3059 381.541 62.3059 382.75C62.3059 383.946 62.8389 384.375 63.9959 384.375C65.0099 384.375 65.6209 384.076 65.6209 383.244V383.14H67.5579V383.322C67.5579 384.999 66.1279 386.13 64.0349 386.13ZM70.347 386H68.397V379.487H70.204V381.216H70.321C70.503 380.163 71.192 379.357 72.505 379.357C73.961 379.357 74.559 380.358 74.559 381.632V382.711H72.609V382.035C72.609 381.32 72.323 381.008 71.53 381.008C70.659 381.008 70.347 381.411 70.347 382.23V386ZM78.7231 386.13C76.5521 386.13 75.0701 385.064 75.0701 382.75C75.0701 380.67 76.5391 379.357 78.6841 379.357C80.8161 379.357 82.2331 380.475 82.2331 382.516C82.2331 382.75 82.2071 382.919 82.1811 383.14H76.8771C76.9291 384.141 77.3971 384.57 78.6581 384.57C79.8151 384.57 80.2181 384.271 80.2181 383.712V383.582H82.1681V383.725C82.1681 385.142 80.7901 386.13 78.7231 386.13ZM78.6451 380.878C77.4881 380.878 76.9941 381.268 76.9031 382.113H80.3611C80.3091 381.255 79.7891 380.878 78.6451 380.878ZM85.062 386.13C83.658 386.13 82.813 385.48 82.813 384.388C82.813 383.426 83.528 382.828 84.919 382.685L87.714 382.399V382.152C87.714 381.307 87.337 381.073 86.297 381.073C85.309 381.073 84.906 381.333 84.906 382.074V382.126H82.943V382.087C82.943 380.475 84.295 379.357 86.44 379.357C88.611 379.357 89.638 380.475 89.638 382.178V386H87.818V384.505H87.714C87.415 385.519 86.505 386.13 85.062 386.13ZM84.776 384.258C84.776 384.609 85.049 384.752 85.621 384.752C86.947 384.752 87.662 384.44 87.714 383.517L85.452 383.777C84.984 383.816 84.776 383.946 84.776 384.258ZM95.2154 386H93.6034C92.0824 386 91.1594 385.285 91.1594 383.647V381.099H90.1324V379.487H91.1594V378.226H93.1094V379.487H95.2154V381.099H93.1094V383.426C93.1094 384.076 93.3564 384.245 94.0454 384.245H95.2154V386ZM99.4038 386.13C97.2328 386.13 95.7508 385.064 95.7508 382.75C95.7508 380.67 97.2198 379.357 99.3648 379.357C101.497 379.357 102.914 380.475 102.914 382.516C102.914 382.75 102.888 382.919 102.862 383.14H97.5578C97.6098 384.141 98.0778 384.57 99.3388 384.57C100.496 384.57 100.899 384.271 100.899 383.712V383.582H102.849V383.725C102.849 385.142 101.471 386.13 99.4038 386.13ZM99.3258 380.878C98.1688 380.878 97.6748 381.268 97.5838 382.113H101.042C100.99 381.255 100.47 380.878 99.3258 380.878ZM107.749 386.13C106.345 386.13 105.5 385.48 105.5 384.388C105.5 383.426 106.215 382.828 107.606 382.685L110.401 382.399V382.152C110.401 381.307 110.024 381.073 108.984 381.073C107.996 381.073 107.593 381.333 107.593 382.074V382.126H105.63V382.087C105.63 380.475 106.982 379.357 109.127 379.357C111.298 379.357 112.325 380.475 112.325 382.178V386H110.505V384.505H110.401C110.102 385.519 109.192 386.13 107.749 386.13ZM107.463 384.258C107.463 384.609 107.736 384.752 108.308 384.752C109.634 384.752 110.349 384.44 110.401 383.517L108.139 383.777C107.671 383.816 107.463 383.946 107.463 384.258ZM115.263 386H113.313V379.487H115.12V381.489H115.237C115.406 380.397 116.186 379.357 117.889 379.357C119.67 379.357 120.515 380.501 120.515 381.944V386H118.565V382.594C118.565 381.554 118.136 381.112 116.94 381.112C115.705 381.112 115.263 381.606 115.263 382.711V386ZM126.965 386.13C124.794 386.13 123.312 385.064 123.312 382.75C123.312 380.67 124.781 379.357 126.926 379.357C129.058 379.357 130.475 380.475 130.475 382.516C130.475 382.75 130.449 382.919 130.423 383.14H125.119C125.171 384.141 125.639 384.57 126.9 384.57C128.057 384.57 128.46 384.271 128.46 383.712V383.582H130.41V383.725C130.41 385.142 129.032 386.13 126.965 386.13ZM126.887 380.878C125.73 380.878 125.236 381.268 125.145 382.113H128.603C128.551 381.255 128.031 380.878 126.887 380.878ZM133.083 386H130.73L133.33 382.815V382.711L130.73 379.487H133.109L134.838 381.684H134.942L136.619 379.487H138.972L136.372 382.672V382.789L138.972 386H136.593L134.864 383.816H134.76L133.083 386ZM142.911 386.13C140.675 386.13 139.245 384.804 139.245 382.75C139.245 380.67 140.675 379.357 142.911 379.357C145.004 379.357 146.434 380.475 146.434 382.165V382.347H144.497V382.243C144.497 381.411 143.886 381.112 142.872 381.112C141.715 381.112 141.182 381.541 141.182 382.75C141.182 383.946 141.715 384.375 142.872 384.375C143.886 384.375 144.497 384.076 144.497 383.244V383.14H146.434V383.322C146.434 384.999 145.004 386.13 142.911 386.13ZM150.731 386.13C148.56 386.13 147.078 385.064 147.078 382.75C147.078 380.67 148.547 379.357 150.692 379.357C152.824 379.357 154.241 380.475 154.241 382.516C154.241 382.75 154.215 382.919 154.189 383.14H148.885C148.937 384.141 149.405 384.57 150.666 384.57C151.823 384.57 152.226 384.271 152.226 383.712V383.582H154.176V383.725C154.176 385.142 152.798 386.13 150.731 386.13ZM150.653 380.878C149.496 380.878 149.002 381.268 148.911 382.113H152.369C152.317 381.255 151.797 380.878 150.653 380.878ZM157.018 388.21H155.068V379.487H156.875V381.268H157.005C157.239 380.02 158.071 379.357 159.605 379.357C161.607 379.357 162.725 380.683 162.725 382.75C162.725 384.817 161.633 386.13 159.67 386.13C158.162 386.13 157.33 385.389 157.109 384.245H157.018V388.21ZM157.018 382.841C157.018 383.959 157.694 384.349 158.916 384.349C160.164 384.349 160.749 383.933 160.749 382.75C160.749 381.554 160.164 381.151 158.929 381.151C157.668 381.151 157.018 381.58 157.018 382.737V382.841ZM168.125 386H166.513C164.992 386 164.069 385.285 164.069 383.647V381.099H163.042V379.487H164.069V378.226H166.019V379.487H168.125V381.099H166.019V383.426C166.019 384.076 166.266 384.245 166.955 384.245H168.125V386ZM170.805 378.824H168.855V377.29H170.805V378.824ZM170.805 386H168.855V379.487H170.805V386ZM175.297 386.13C173.074 386.13 171.579 384.804 171.579 382.75C171.579 380.67 173.074 379.357 175.297 379.357C177.52 379.357 179.015 380.67 179.015 382.75C179.015 384.804 177.52 386.13 175.297 386.13ZM175.297 384.401C176.61 384.401 177.078 383.894 177.078 382.75C177.078 381.606 176.61 381.073 175.297 381.073C173.971 381.073 173.516 381.606 173.516 382.75C173.516 383.894 173.971 384.401 175.297 384.401ZM181.761 386H179.811V379.487H181.618V381.489H181.735C181.904 380.397 182.684 379.357 184.387 379.357C186.168 379.357 187.013 380.501 187.013 381.944V386H185.063V382.594C185.063 381.554 184.634 381.112 183.438 381.112C182.203 381.112 181.761 381.606 181.761 382.711V386ZM190.001 386.13C188.597 386.13 187.752 385.48 187.752 384.388C187.752 383.426 188.467 382.828 189.858 382.685L192.653 382.399V382.152C192.653 381.307 192.276 381.073 191.236 381.073C190.248 381.073 189.845 381.333 189.845 382.074V382.126H187.882V382.087C187.882 380.475 189.234 379.357 191.379 379.357C193.55 379.357 194.577 380.475 194.577 382.178V386H192.757V384.505H192.653C192.354 385.519 191.444 386.13 190.001 386.13ZM189.715 384.258C189.715 384.609 189.988 384.752 190.56 384.752C191.886 384.752 192.601 384.44 192.653 383.517L190.391 383.777C189.923 383.816 189.715 383.946 189.715 384.258ZM197.516 386H195.566V377.29H197.516V386ZM204 386.13C201.829 386.13 200.347 385.064 200.347 382.75C200.347 380.67 201.816 379.357 203.961 379.357C206.093 379.357 207.51 380.475 207.51 382.516C207.51 382.75 207.484 382.919 207.458 383.14H202.154C202.206 384.141 202.674 384.57 203.935 384.57C205.092 384.57 205.495 384.271 205.495 383.712V383.582H207.445V383.725C207.445 385.142 206.067 386.13 204 386.13ZM203.922 380.878C202.765 380.878 202.271 381.268 202.18 382.113H205.638C205.586 381.255 205.066 380.878 203.922 380.878ZM210.118 386H207.765L210.365 382.815V382.711L207.765 379.487H210.144L211.873 381.684H211.977L213.654 379.487H216.007L213.407 382.672V382.789L216.007 386H213.628L211.899 383.816H211.795L210.118 386ZM218.425 388.21H216.475V379.487H218.282V381.268H218.412C218.646 380.02 219.478 379.357 221.012 379.357C223.014 379.357 224.132 380.683 224.132 382.75C224.132 384.817 223.04 386.13 221.077 386.13C219.569 386.13 218.737 385.389 218.516 384.245H218.425V388.21ZM218.425 382.841C218.425 383.959 219.101 384.349 220.323 384.349C221.571 384.349 222.156 383.933 222.156 382.75C222.156 381.554 221.571 381.151 220.336 381.151C219.075 381.151 218.425 381.58 218.425 382.737V382.841ZM228.401 386.13C226.23 386.13 224.748 385.064 224.748 382.75C224.748 380.67 226.217 379.357 228.362 379.357C230.494 379.357 231.911 380.475 231.911 382.516C231.911 382.75 231.885 382.919 231.859 383.14H226.555C226.607 384.141 227.075 384.57 228.336 384.57C229.493 384.57 229.896 384.271 229.896 383.712V383.582H231.846V383.725C231.846 385.142 230.468 386.13 228.401 386.13ZM228.323 380.878C227.166 380.878 226.672 381.268 226.581 382.113H230.039C229.987 381.255 229.467 380.878 228.323 380.878ZM234.688 386H232.738V379.487H234.545V381.216H234.662C234.844 380.163 235.533 379.357 236.846 379.357C238.302 379.357 238.9 380.358 238.9 381.632V382.711H236.95V382.035C236.95 381.32 236.664 381.008 235.871 381.008C235 381.008 234.688 381.411 234.688 382.23V386ZM241.556 378.824H239.606V377.29H241.556V378.824ZM241.556 386H239.606V379.487H241.556V386ZM246.035 386.13C243.864 386.13 242.382 385.064 242.382 382.75C242.382 380.67 243.851 379.357 245.996 379.357C248.128 379.357 249.545 380.475 249.545 382.516C249.545 382.75 249.519 382.919 249.493 383.14H244.189C244.241 384.141 244.709 384.57 245.97 384.57C247.127 384.57 247.53 384.271 247.53 383.712V383.582H249.48V383.725C249.48 385.142 248.102 386.13 246.035 386.13ZM245.957 380.878C244.8 380.878 244.306 381.268 244.215 382.113H247.673C247.621 381.255 247.101 380.878 245.957 380.878ZM252.322 386H250.372V379.487H252.179V381.489H252.296C252.465 380.397 253.245 379.357 254.948 379.357C256.729 379.357 257.574 380.501 257.574 381.944V386H255.624V382.594C255.624 381.554 255.195 381.112 253.999 381.112C252.764 381.112 252.322 381.606 252.322 382.711V386ZM262.031 386.13C259.795 386.13 258.365 384.804 258.365 382.75C258.365 380.67 259.795 379.357 262.031 379.357C264.124 379.357 265.554 380.475 265.554 382.165V382.347H263.617V382.243C263.617 381.411 263.006 381.112 261.992 381.112C260.835 381.112 260.302 381.541 260.302 382.75C260.302 383.946 260.835 384.375 261.992 384.375C263.006 384.375 263.617 384.076 263.617 383.244V383.14H265.554V383.322C265.554 384.999 264.124 386.13 262.031 386.13ZM269.851 386.13C267.68 386.13 266.198 385.064 266.198 382.75C266.198 380.67 267.667 379.357 269.812 379.357C271.944 379.357 273.361 380.475 273.361 382.516C273.361 382.75 273.335 382.919 273.309 383.14H268.005C268.057 384.141 268.525 384.57 269.786 384.57C270.943 384.57 271.346 384.271 271.346 383.712V383.582H273.296V383.725C273.296 385.142 271.918 386.13 269.851 386.13ZM269.773 380.878C268.616 380.878 268.122 381.268 268.031 382.113H271.489C271.437 381.255 270.917 380.878 269.773 380.878ZM276.567 386H274.058V383.725H276.567V386Z" fill="#284799"/>
</svg>
