<svg width="293" height="71" viewBox="0 0 293 71" fill="none" xmlns="http://www.w3.org/2000/svg">
<circle cx="146.5" cy="35.5" r="32.5" stroke="white" stroke-width="6"/>
<circle cx="26.5" cy="35.5" r="26.5" fill="#CAB4FF"/>
<path d="M22.2812 39.7188L18.0625 43.9375" stroke="white" stroke-width="1.6875" stroke-linecap="round" stroke-linejoin="round"/>
<path d="M29.2782 25.1277L22.703 31.703C22.703 31.703 19.7768 30.2399 16.6492 32.763C16.5568 32.8374 16.4812 32.9303 16.4271 33.0358C16.373 33.1413 16.3417 33.257 16.3352 33.3754C16.3288 33.4938 16.3473 33.6122 16.3896 33.723C16.4319 33.8338 16.4971 33.9344 16.5808 34.0183L27.9605 45.398C28.0457 45.4835 28.1483 45.5496 28.2613 45.592C28.3743 45.6344 28.4951 45.652 28.6155 45.6437C28.7358 45.6354 28.853 45.6013 28.9591 45.5438C29.0652 45.4863 29.1577 45.4067 29.2304 45.3103C30.1156 44.1337 31.506 41.7152 30.2967 39.2967L36.872 32.7215C37.0302 32.5633 37.1191 32.3486 37.1191 32.1249C37.1191 31.9011 37.0302 31.6865 36.872 31.5283L30.4715 25.1277C30.3132 24.9695 30.0986 24.8806 29.8748 24.8806C29.6511 24.8806 29.4365 24.9695 29.2782 25.1277V25.1277Z" stroke="white" stroke-width="1.6875" stroke-linecap="round" stroke-linejoin="round"/>
<circle cx="266.5" cy="35.5" r="26.5" fill="#7DA1FF"/>
<path d="M275.781 27.0625H257.219C256.753 27.0625 256.375 27.4403 256.375 27.9062V40.5625C256.375 41.0285 256.753 41.4062 257.219 41.4062H275.781C276.247 41.4062 276.625 41.0285 276.625 40.5625V27.9062C276.625 27.4403 276.247 27.0625 275.781 27.0625Z" stroke="white" stroke-width="1.6875" stroke-linecap="round" stroke-linejoin="round"/>
<path d="M269.875 41.4062L273.25 45.625" stroke="white" stroke-width="1.6875" stroke-linecap="round" stroke-linejoin="round"/>
<path d="M263.125 41.4062L259.75 45.625" stroke="white" stroke-width="1.6875" stroke-linecap="round" stroke-linejoin="round"/>
<path d="M266.5 27.0625V24.5312" stroke="white" stroke-width="1.6875" stroke-linecap="round" stroke-linejoin="round"/>
</svg>
