<svg width="430" height="932" viewBox="0 0 430 932" fill="none" xmlns="http://www.w3.org/2000/svg">
<g clip-path="url(#clip0_264_2171)">
<rect width="430" height="932" fill="#7DA1FF"/>
<g filter="url(#filter0_f_264_2171)">
<ellipse cx="237.589" cy="394.659" rx="547.666" ry="399.908" transform="rotate(106.026 237.589 394.659)" fill="#FFB2E7"/>
</g>
<g filter="url(#filter1_f_264_2171)">
<ellipse cx="-232.907" cy="670.589" rx="276.918" ry="202.206" transform="rotate(-172.11 -232.907 670.589)" fill="#CAB4FF"/>
</g>
<g filter="url(#filter2_f_264_2171)">
<ellipse cx="288.5" cy="514.254" rx="295.635" ry="215.874" transform="rotate(106.026 288.5 514.254)" fill="#FEDFB7"/>
</g>
<g filter="url(#filter3_f_264_2171)">
<ellipse cx="21.2983" cy="-7.57929" rx="179.444" ry="131.031" transform="rotate(101.165 21.2983 -7.57929)" fill="#FFA795"/>
</g>
<path d="M130.416 182.833C141.14 182.833 149.833 174.14 149.833 163.416C149.833 152.693 141.14 144 130.416 144C119.693 144 111 152.693 111 163.416C111 174.14 119.693 182.833 130.416 182.833Z" fill="#FFF8F0"/>
<path d="M172.583 182.833C183.306 182.833 191.999 174.14 191.999 163.416C191.999 152.693 183.306 144 172.583 144C161.859 144 153.166 152.693 153.166 163.416C153.166 174.14 161.859 182.833 172.583 182.833Z" fill="#FFF8F0"/>
<path d="M172.582 182.833C160.021 182.833 149.832 193.022 149.832 205.583L130.415 186.167C142.976 186.167 153.165 175.977 153.165 163.417L172.582 182.833Z" fill="#FFF8F0"/>
<path d="M191.999 163.417C191.999 175.977 202.189 186.167 214.749 186.167L195.333 205.583C195.333 193.022 185.144 182.833 172.583 182.833L191.999 163.417Z" fill="#FFF8F0"/>
<path d="M214.749 182.833C225.472 182.833 234.165 174.14 234.165 163.416C234.165 152.693 225.472 144 214.749 144C204.025 144 195.332 152.693 195.332 163.416C195.332 174.14 204.025 182.833 214.749 182.833Z" fill="#FFF8F0"/>
<path d="M234.165 163.417C234.165 175.977 244.355 186.167 256.915 186.167L237.499 205.583C237.499 193.022 227.31 182.833 214.749 182.833L234.165 163.417Z" fill="#FFF8F0"/>
<path d="M256.915 182.833C267.638 182.833 276.331 174.14 276.331 163.416C276.331 152.693 267.638 144 256.915 144C246.192 144 237.499 152.693 237.499 163.416C237.499 174.14 246.192 182.833 256.915 182.833Z" fill="#FFF8F0"/>
<path d="M299.083 182.833C309.806 182.833 318.499 174.14 318.499 163.416C318.499 152.693 309.806 144 299.083 144C288.359 144 279.666 152.693 279.666 163.416C279.666 174.14 288.359 182.833 299.083 182.833Z" fill="#FFF8F0"/>
<path d="M299.083 182.833C286.522 182.833 276.333 193.022 276.333 205.583L256.917 186.167C269.477 186.167 279.667 175.977 279.667 163.417L299.083 182.833Z" fill="#FFF8F0"/>
<path d="M130.416 224.999C141.14 224.999 149.833 216.306 149.833 205.583C149.833 194.859 141.14 186.166 130.416 186.166C119.693 186.166 111 194.859 111 205.583C111 216.306 119.693 224.999 130.416 224.999Z" fill="#FFF8F0"/>
<path d="M172.583 224.999C183.306 224.999 191.999 216.306 191.999 205.583C191.999 194.859 183.306 186.166 172.583 186.166C161.859 186.166 153.166 194.859 153.166 205.583C153.166 216.306 161.859 224.999 172.583 224.999Z" fill="#FFF8F0"/>
<path d="M214.749 224.999C225.472 224.999 234.165 216.306 234.165 205.583C234.165 194.859 225.472 186.166 214.749 186.166C204.025 186.166 195.332 194.859 195.332 205.583C195.332 216.306 204.025 224.999 214.749 224.999Z" fill="#FFF8F0"/>
<path d="M256.915 224.999C267.638 224.999 276.331 216.306 276.331 205.583C276.331 194.859 267.638 186.166 256.915 186.166C246.192 186.166 237.499 194.859 237.499 205.583C237.499 216.306 246.192 224.999 256.915 224.999Z" fill="#FFF8F0"/>
<path d="M299.083 224.999C309.806 224.999 318.499 216.306 318.499 205.583C318.499 194.859 309.806 186.166 299.083 186.166C288.359 186.166 279.666 194.859 279.666 205.583C279.666 216.306 288.359 224.999 299.083 224.999Z" fill="#FFF8F0"/>
<path d="M111.005 161.738V203.904H149.838V161.738H111.005Z" fill="#FFF8F0"/>
<path d="M172.582 144H130.415V182.833H172.582V144Z" fill="#FFF8F0"/>
<path d="M279.674 161.74V203.907H318.507V161.74H279.674Z" fill="#FFF8F0"/>
<path d="M299.083 186.166H256.917V224.999H299.083V186.166Z" fill="#FFF8F0"/>
<path d="M157.12 835.16C153.968 835.16 152.496 833.656 152.496 831.608V831.512H153.648V831.72C153.648 833.256 154.608 834.088 157.12 834.088C159.264 834.088 160.24 833.496 160.24 832.28C160.24 831.08 159.52 830.648 157.952 830.328L155.68 829.896C153.936 829.56 152.544 828.824 152.544 827.048C152.544 825.592 153.792 824.12 156.864 824.12C159.888 824.12 161.232 825.72 161.232 827.672V827.768H160.08V827.576C160.08 826.024 159.12 825.192 156.784 825.192C154.656 825.192 153.696 825.8 153.696 826.968C153.696 828.184 154.4 828.552 155.984 828.888L158.24 829.336C160.16 829.704 161.392 830.52 161.392 832.184C161.392 833.72 160.096 835.16 157.12 835.16ZM164.002 835H162.866V824.28H164.002V835ZM170.713 835.16C167.657 835.16 165.513 832.984 165.513 829.64C165.513 826.296 167.737 824.12 170.937 824.12C173.721 824.12 175.801 825.64 175.801 828.024V828.168H174.569V828.024C174.569 826.248 173.289 825.224 170.921 825.224C168.217 825.224 166.713 826.728 166.713 829.64C166.713 832.552 168.201 834.056 170.873 834.056C173.417 834.056 174.665 833.096 174.665 831.016V830.616H170.409V829.72H175.817V835H174.793V832.664H174.713C174.169 834.392 172.617 835.16 170.713 835.16ZM178.659 835H177.523V824.28H178.771L184.387 831.56L185.683 833.352H185.779L185.747 831.592V824.28H186.883V835H185.635L180.051 827.8L178.707 825.992H178.627L178.659 827.784V835ZM196.932 835H188.788V824.28H196.932V825.32H189.924V829.096H196.692V830.12H189.924V833.96H196.932V835ZM203.211 835H198.555V824.28H203.211C206.427 824.28 208.475 826.36 208.475 829.64C208.475 832.92 206.427 835 203.211 835ZM203.211 825.32H199.707V833.96H203.211C205.931 833.96 207.275 832.552 207.275 829.64C207.275 826.728 205.931 825.32 203.211 825.32ZM217.681 835.16C214.705 835.16 212.849 833.512 212.849 830.568V824.28H213.985V830.52C213.985 832.968 215.185 834.04 217.681 834.04C220.177 834.04 221.377 832.968 221.377 830.52V824.28H222.513V830.568C222.513 833.512 220.657 835.16 217.681 835.16ZM225.487 835H224.351V824.28H229.279C231.599 824.28 233.231 825.608 233.231 827.896C233.231 830.2 231.599 831.528 229.279 831.528H225.487V835ZM229.183 825.32H225.487V830.488H229.183C231.071 830.488 232.079 829.72 232.079 827.896C232.079 826.104 231.071 825.32 229.183 825.32ZM241.494 835H239.798L236.694 824.28H237.958L240.086 831.672L240.646 833.864H240.742L241.382 831.672L243.878 824.28H245.477L248.23 831.672L248.95 833.864H249.03L249.526 831.672L251.398 824.28H252.646L249.878 835H248.182L245.574 828.024L244.726 825.528H244.614L243.862 828.024L241.494 835ZM255.018 835H253.882V824.28H255.018V835ZM261.697 835H260.561V825.32H256.145V824.28H266.097V825.32H261.697V835ZM268.362 835H267.226V824.28H268.362V829.08H275.258V824.28H276.394V835H275.258V830.12H268.362V835Z" fill="#181818"/>
<path d="M143.688 857.16C140.984 857.16 139.496 856.104 139.496 854.248V854.2H141.896V854.344C141.896 855.064 142.344 855.256 143.704 855.256C144.984 855.256 145.288 855.048 145.288 854.568C145.288 854.12 145.048 853.992 144.104 853.864L141.848 853.592C140.248 853.416 139.352 852.696 139.352 851.352C139.352 849.944 140.552 848.824 143.304 848.824C145.928 848.824 147.416 849.816 147.416 851.768V851.816H145.016V851.72C145.016 851.064 144.696 850.728 143.224 850.728C142.024 850.728 141.72 850.936 141.72 851.448C141.72 851.864 141.944 852.04 143 852.168L144.712 852.376C146.856 852.616 147.656 853.336 147.656 854.664C147.656 856.168 146.168 857.16 143.688 857.16ZM152.896 857.16C150.16 857.16 148.32 855.528 148.32 853C148.32 850.44 150.16 848.824 152.896 848.824C155.632 848.824 157.472 850.44 157.472 853C157.472 855.528 155.632 857.16 152.896 857.16ZM152.896 855.032C154.512 855.032 155.088 854.408 155.088 853C155.088 851.592 154.512 850.936 152.896 850.936C151.264 850.936 150.704 851.592 150.704 853C150.704 854.408 151.264 855.032 152.896 855.032ZM161.765 857.16C159.509 857.16 158.437 855.768 158.437 853.976V848.984H160.837V853.176C160.837 854.472 161.381 855.016 162.901 855.016C164.469 855.016 165.029 854.408 165.029 853.048V848.984H167.429V857H165.189V854.552H165.061C164.853 855.896 163.877 857.16 161.765 857.16ZM171.056 857H168.656V848.984H170.88V851.112H171.024C171.248 849.816 172.096 848.824 173.712 848.824C175.504 848.824 176.24 850.056 176.24 851.624V852.952H173.84V852.12C173.84 851.24 173.488 850.856 172.512 850.856C171.44 850.856 171.056 851.352 171.056 852.36V857ZM179.573 857.16C177.845 857.16 176.805 856.36 176.805 855.016C176.805 853.832 177.685 853.096 179.397 852.92L182.837 852.568V852.264C182.837 851.224 182.373 850.936 181.093 850.936C179.877 850.936 179.381 851.256 179.381 852.168V852.232H176.965V852.184C176.965 850.2 178.629 848.824 181.269 848.824C183.941 848.824 185.205 850.2 185.205 852.296V857H182.965V855.16H182.837C182.469 856.408 181.349 857.16 179.573 857.16ZM179.221 854.856C179.221 855.288 179.557 855.464 180.261 855.464C181.893 855.464 182.773 855.08 182.837 853.944L180.053 854.264C179.477 854.312 179.221 854.472 179.221 854.856ZM192.389 857H189.429L185.781 848.984H188.453L190.853 854.664H191.013L193.429 848.984H196.053L192.389 857ZM198.911 857H196.687V846.28H199.087V851.112H199.215C199.487 849.768 200.463 848.824 202.367 848.824C204.767 848.824 206.111 850.44 206.111 853C206.111 855.528 204.751 857.16 202.255 857.16C200.399 857.16 199.343 856.36 199.055 854.776H198.911V857ZM199.087 853.048C199.087 854.44 199.903 854.968 201.423 854.968C202.975 854.968 203.679 854.456 203.679 853C203.679 851.528 202.975 851.016 201.439 851.016C199.887 851.016 199.087 851.528 199.087 852.92V853.048ZM209.509 857H207.109V846.28H209.509V851.432H209.637C209.893 850.072 210.837 848.824 212.885 848.824C215.045 848.824 216.101 850.232 216.101 852.088V857H213.701V852.808C213.701 851.464 213.125 850.984 211.621 850.984C210.005 850.984 209.509 851.64 209.509 852.984V857ZM220.624 857.16C218.368 857.16 217.296 855.768 217.296 853.976V848.984H219.696V853.176C219.696 854.472 220.24 855.016 221.76 855.016C223.328 855.016 223.888 854.408 223.888 853.048V848.984H226.288V857H224.048V854.552H223.92C223.712 855.896 222.736 857.16 220.624 857.16ZM229.915 857H227.515V848.984H229.739V851.112H229.883C230.107 849.816 230.955 848.824 232.571 848.824C234.363 848.824 235.099 850.056 235.099 851.624V852.952H232.699V852.12C232.699 851.24 232.347 850.856 231.371 850.856C230.299 850.856 229.915 851.352 229.915 852.36V857ZM240.224 857.16C237.552 857.16 235.728 855.848 235.728 853C235.728 850.44 237.536 848.824 240.176 848.824C242.8 848.824 244.544 850.2 244.544 852.712C244.544 853 244.512 853.208 244.48 853.48H237.952C238.016 854.712 238.592 855.24 240.144 855.24C241.568 855.24 242.064 854.872 242.064 854.184V854.024H244.464V854.2C244.464 855.944 242.768 857.16 240.224 857.16ZM240.128 850.696C238.704 850.696 238.096 851.176 237.984 852.216H242.24C242.176 851.16 241.536 850.696 240.128 850.696ZM254.81 857H245.29V855.464C245.29 853.576 246.106 852.6 248.362 851.848L251.114 850.952C252.074 850.616 252.426 850.296 252.426 849.592C252.426 848.776 251.978 848.312 250.218 848.312C248.25 848.312 247.658 848.904 247.658 850.088V850.296H245.306V850.088C245.306 848.008 246.73 846.12 250.298 846.12C253.53 846.12 254.842 847.592 254.842 849.624C254.842 851.528 253.594 852.472 251.69 853L249.354 853.64C248.314 853.96 247.818 854.264 247.818 855.112L250.618 854.84H254.81V857ZM260.979 857.16C257.523 857.16 255.619 854.984 255.619 851.64C255.619 848.312 257.523 846.12 260.979 846.12C264.419 846.12 266.339 848.312 266.339 851.64C266.339 854.984 264.419 857.16 260.979 857.16ZM260.979 854.824C263.011 854.824 263.763 853.944 263.763 851.64C263.763 849.336 263.011 848.456 260.979 848.456C258.931 848.456 258.195 849.336 258.195 851.64C258.195 853.944 258.931 854.824 260.979 854.824ZM272.479 857.16C269.023 857.16 267.119 854.984 267.119 851.64C267.119 848.312 269.023 846.12 272.479 846.12C275.919 846.12 277.839 848.312 277.839 851.64C277.839 854.984 275.919 857.16 272.479 857.16ZM272.479 854.824C274.511 854.824 275.263 853.944 275.263 851.64C275.263 849.336 274.511 848.456 272.479 848.456C270.431 848.456 269.695 849.336 269.695 851.64C269.695 853.944 270.431 854.824 272.479 854.824ZM283.979 857.16C280.523 857.16 278.619 854.984 278.619 851.64C278.619 848.312 280.523 846.12 283.979 846.12C287.419 846.12 289.339 848.312 289.339 851.64C289.339 854.984 287.419 857.16 283.979 857.16ZM283.979 854.824C286.011 854.824 286.763 853.944 286.763 851.64C286.763 849.336 286.011 848.456 283.979 848.456C281.931 848.456 281.195 849.336 281.195 851.64C281.195 853.944 281.931 854.824 283.979 854.824Z" fill="#181818"/>
<circle cx="230" cy="780" r="24" fill="white"/>
<path d="M243.074 777.389H242V777.333H230V782.667H237.535C236.436 785.771 233.482 788 230 788C225.582 788 222 784.418 222 780C222 775.582 225.582 772 230 772C232.039 772 233.895 772.769 235.307 774.026L239.079 770.255C236.697 768.035 233.512 766.667 230 766.667C222.637 766.667 216.667 772.637 216.667 780C216.667 787.363 222.637 793.333 230 793.333C237.363 793.333 243.333 787.363 243.333 780C243.333 779.106 243.241 778.233 243.074 777.389Z" fill="#FFC107"/>
<path d="M218.204 773.794L222.585 777.007C223.77 774.072 226.641 772 230 772C232.039 772 233.895 772.769 235.307 774.026L239.079 770.255C236.697 768.035 233.512 766.667 230 766.667C224.879 766.667 220.437 769.558 218.204 773.794Z" fill="#FF3D00"/>
<path d="M230 793.333C233.444 793.333 236.573 792.015 238.939 789.872L234.813 786.38C233.474 787.394 231.81 788 230 788C226.532 788 223.587 785.789 222.478 782.703L218.13 786.053C220.337 790.371 224.818 793.333 230 793.333Z" fill="#4CAF50"/>
<path d="M243.074 777.389H242V777.333H230V782.667H237.535C237.007 784.158 236.048 785.444 234.811 786.381L234.813 786.379L238.939 789.871C238.647 790.137 243.333 786.667 243.333 780C243.333 779.106 243.241 778.233 243.074 777.389Z" fill="#1976D2"/>
<path d="M200 802.5C212.426 802.5 222.5 792.426 222.5 780C222.5 767.574 212.426 757.5 200 757.5C187.574 757.5 177.5 767.574 177.5 780C177.5 792.426 187.574 802.5 200 802.5Z" fill="#7DA1FF" stroke="#7DA1FF" stroke-width="2.8125" stroke-linecap="round" stroke-linejoin="round"/>
<path d="M210.312 774.375L196.562 787.5L189.688 780.938" stroke="white" stroke-width="2.8125" stroke-linecap="round" stroke-linejoin="round"/>
</g>
<defs>
<filter id="filter0_f_264_2171" x="-575.555" y="-543.286" width="1626.29" height="1875.89" filterUnits="userSpaceOnUse" color-interpolation-filters="sRGB">
<feFlood flood-opacity="0" result="BackgroundImageFix"/>
<feBlend mode="normal" in="SourceGraphic" in2="BackgroundImageFix" result="shape"/>
<feGaussianBlur stdDeviation="200" result="effect1_foregroundBlur_264_2171"/>
</filter>
<filter id="filter1_f_264_2171" x="-908.625" y="66.6846" width="1351.44" height="1207.81" filterUnits="userSpaceOnUse" color-interpolation-filters="sRGB">
<feFlood flood-opacity="0" result="BackgroundImageFix"/>
<feBlend mode="normal" in="SourceGraphic" in2="BackgroundImageFix" result="shape"/>
<feGaussianBlur stdDeviation="200" result="effect1_foregroundBlur_264_2171"/>
</filter>
<filter id="filter2_f_264_2171" x="-334.519" y="-176.134" width="1246.04" height="1380.78" filterUnits="userSpaceOnUse" color-interpolation-filters="sRGB">
<feFlood flood-opacity="0" result="BackgroundImageFix"/>
<feBlend mode="normal" in="SourceGraphic" in2="BackgroundImageFix" result="shape"/>
<feGaussianBlur stdDeviation="200" result="effect1_foregroundBlur_264_2171"/>
</filter>
<filter id="filter3_f_264_2171" x="-511.899" y="-585.469" width="1066.39" height="1155.78" filterUnits="userSpaceOnUse" color-interpolation-filters="sRGB">
<feFlood flood-opacity="0" result="BackgroundImageFix"/>
<feBlend mode="normal" in="SourceGraphic" in2="BackgroundImageFix" result="shape"/>
<feGaussianBlur stdDeviation="200" result="effect1_foregroundBlur_264_2171"/>
</filter>
<clipPath id="clip0_264_2171">
<rect width="430" height="932" fill="white"/>
</clipPath>
</defs>
</svg>
