<svg width="208" height="81" viewBox="0 0 208 81" fill="none" xmlns="http://www.w3.org/2000/svg">
<path d="M19.4163 38.8326C30.1396 38.8326 38.8326 30.1396 38.8326 19.4163C38.8326 8.69297 30.1396 0 19.4163 0C8.69297 0 0 8.69297 0 19.4163C0 30.1396 8.69297 38.8326 19.4163 38.8326Z" fill="#FFF8F0"/>
<path d="M61.5825 38.8326C72.3059 38.8326 80.9988 30.1396 80.9988 19.4163C80.9988 8.69297 72.3059 0 61.5825 0C50.8592 0 42.1663 8.69297 42.1663 19.4163C42.1663 30.1396 50.8592 38.8326 61.5825 38.8326Z" fill="#FFF8F0"/>
<path d="M61.5817 38.8329C49.021 38.8329 38.8316 49.0224 38.8316 61.5831L19.4153 42.1668C31.976 42.1668 42.1654 31.9773 42.1654 19.4166L61.5817 38.8329Z" fill="#FFF8F0"/>
<path d="M80.9991 19.4166C80.9991 31.9773 91.1885 42.1668 103.749 42.1668L84.3329 61.5831C84.3329 49.0224 74.1435 38.8329 61.5828 38.8329L80.9991 19.4166Z" fill="#FFF8F0"/>
<path d="M103.749 38.8326C114.472 38.8326 123.165 30.1396 123.165 19.4163C123.165 8.69297 114.472 0 103.749 0C93.0255 0 84.3325 8.69297 84.3325 19.4163C84.3325 30.1396 93.0255 38.8326 103.749 38.8326Z" fill="#FFF8F0"/>
<path d="M123.165 19.4166C123.165 31.9773 133.355 42.1668 145.915 42.1668L126.499 61.5831C126.499 49.0224 116.31 38.8329 103.749 38.8329L123.165 19.4166Z" fill="#FFF8F0"/>
<path d="M145.915 38.8326C156.638 38.8326 165.331 30.1396 165.331 19.4163C165.331 8.69297 156.638 0 145.915 0C135.192 0 126.499 8.69297 126.499 19.4163C126.499 30.1396 135.192 38.8326 145.915 38.8326Z" fill="#FFF8F0"/>
<path d="M188.083 38.8326C198.806 38.8326 207.499 30.1396 207.499 19.4163C207.499 8.69297 198.806 0 188.083 0C177.359 0 168.666 8.69297 168.666 19.4163C168.666 30.1396 177.359 38.8326 188.083 38.8326Z" fill="#FFF8F0"/>
<path d="M188.083 38.8329C175.522 38.8329 165.333 49.0224 165.333 61.5831L145.917 42.1668C158.477 42.1668 168.667 31.9773 168.667 19.4166L188.083 38.8329Z" fill="#FFF8F0"/>
<path d="M19.4163 80.9988C30.1396 80.9988 38.8326 72.3059 38.8326 61.5825C38.8326 50.8592 30.1396 42.1663 19.4163 42.1663C8.69297 42.1663 0 50.8592 0 61.5825C0 72.3059 8.69297 80.9988 19.4163 80.9988Z" fill="#FFF8F0"/>
<path d="M61.5825 80.9988C72.3059 80.9988 80.9988 72.3059 80.9988 61.5825C80.9988 50.8592 72.3059 42.1663 61.5825 42.1663C50.8592 42.1663 42.1663 50.8592 42.1663 61.5825C42.1663 72.3059 50.8592 80.9988 61.5825 80.9988Z" fill="#FFF8F0"/>
<path d="M103.749 80.9988C114.472 80.9988 123.165 72.3059 123.165 61.5825C123.165 50.8592 114.472 42.1663 103.749 42.1663C93.0255 42.1663 84.3325 50.8592 84.3325 61.5825C84.3325 72.3059 93.0255 80.9988 103.749 80.9988Z" fill="#FFF8F0"/>
<path d="M145.915 80.9988C156.638 80.9988 165.331 72.3059 165.331 61.5825C165.331 50.8592 156.638 42.1663 145.915 42.1663C135.192 42.1663 126.499 50.8592 126.499 61.5825C126.499 72.3059 135.192 80.9988 145.915 80.9988Z" fill="#FFF8F0"/>
<path d="M188.083 80.9988C198.806 80.9988 207.499 72.3059 207.499 61.5825C207.499 50.8592 198.806 42.1663 188.083 42.1663C177.359 42.1663 168.666 50.8592 168.666 61.5825C168.666 72.3059 177.359 80.9988 188.083 80.9988Z" fill="#FFF8F0"/>
<path d="M0.00537109 17.7377L0.00537109 59.9042H38.838V17.7377H0.00537109Z" fill="#FFF8F0"/>
<path d="M61.5817 0H19.4153V38.8326H61.5817V0Z" fill="#FFF8F0"/>
<path d="M168.674 17.7404V59.9069H207.507V17.7404H168.674Z" fill="#FFF8F0"/>
<path d="M188.083 42.1663H145.917V80.9988H188.083V42.1663Z" fill="#FFF8F0"/>
</svg>
