<svg width="73" height="73" viewBox="0 0 73 73" fill="none" xmlns="http://www.w3.org/2000/svg">
<path d="M11.4062 32.6979V15.9688C11.4062 15.3637 11.6466 14.7835 12.0744 14.3557C12.5022 13.9278 13.0825 13.6875 13.6875 13.6875H59.3125C59.9175 13.6875 60.4978 13.9278 60.9256 14.3557C61.3534 14.7835 61.5938 15.3637 61.5938 15.9688V32.6979C61.5938 56.6554 41.2604 64.5927 37.2004 65.9387C36.7465 66.095 36.2535 66.095 35.7996 65.9387C31.7396 64.5927 11.4062 56.6554 11.4062 32.6979Z" stroke="#CDDBFF" stroke-width="7" stroke-linecap="round" stroke-linejoin="round"/>
<path d="M36.5 27.375V38.7812" stroke="#CDDBFF" stroke-width="7" stroke-linecap="round" stroke-linejoin="round"/>
<path d="M36.5 52.4688C38.3898 52.4688 39.9219 50.9367 39.9219 49.0469C39.9219 47.157 38.3898 45.625 36.5 45.625C34.6102 45.625 33.0781 47.157 33.0781 49.0469C33.0781 50.9367 34.6102 52.4688 36.5 52.4688Z" fill="#CDDBFF"/>
</svg>
