<svg width="430" height="932" viewBox="0 0 430 932" fill="none" xmlns="http://www.w3.org/2000/svg">
<g clip-path="url(#clip0_264_2093)">
<rect width="430" height="932" fill="#7DA1FF"/>
<g filter="url(#filter0_f_264_2093)">
<ellipse cx="93.0663" cy="337.451" rx="547.666" ry="399.908" transform="rotate(19.3009 93.0663 337.451)" fill="#FFB2E7"/>
</g>
<g filter="url(#filter1_f_264_2093)">
<ellipse cx="341.661" cy="822.943" rx="276.918" ry="202.206" transform="rotate(101.165 341.661 822.943)" fill="#CAB4FF"/>
</g>
<g filter="url(#filter2_f_264_2093)">
<ellipse cx="215.373" cy="293.457" rx="295.635" ry="215.874" transform="rotate(19.3009 215.373 293.457)" fill="#FEDFB7"/>
</g>
<g filter="url(#filter3_f_264_2093)">
<ellipse cx="21.2983" cy="-7.57929" rx="179.444" ry="131.031" transform="rotate(101.165 21.2983 -7.57929)" fill="#FFA795"/>
</g>
<path d="M93.0581 463.116C108.554 463.116 121.116 450.554 121.116 435.058C121.116 419.562 108.554 407 93.0581 407C77.562 407 65 419.562 65 435.058C65 450.554 77.562 463.116 93.0581 463.116Z" fill="#FFF8F0"/>
<path d="M153.992 463.116C169.488 463.116 182.05 450.554 182.05 435.058C182.05 419.562 169.488 407 153.992 407C138.496 407 125.934 419.562 125.934 435.058C125.934 450.554 138.496 463.116 153.992 463.116Z" fill="#FFF8F0"/>
<path d="M153.991 463.116C135.84 463.116 121.115 477.84 121.115 495.991L93.0574 467.933C111.209 467.933 125.933 453.209 125.933 435.057L153.991 463.116Z" fill="#FFF8F0"/>
<path d="M182.051 435.057C182.051 453.209 196.775 467.933 214.927 467.933L186.869 495.991C186.869 477.84 172.144 463.116 153.993 463.116L182.051 435.057Z" fill="#FFF8F0"/>
<path d="M214.926 463.116C230.422 463.116 242.984 450.554 242.984 435.058C242.984 419.562 230.422 407 214.926 407C199.43 407 186.868 419.562 186.868 435.058C186.868 450.554 199.43 463.116 214.926 463.116Z" fill="#FFF8F0"/>
<path d="M242.985 435.057C242.985 453.209 257.709 467.933 275.861 467.933L247.803 495.991C247.803 477.84 233.078 463.116 214.927 463.116L242.985 435.057Z" fill="#FFF8F0"/>
<path d="M275.86 463.116C291.356 463.116 303.918 450.554 303.918 435.058C303.918 419.562 291.356 407 275.86 407C260.364 407 247.802 419.562 247.802 435.058C247.802 450.554 260.364 463.116 275.86 463.116Z" fill="#FFF8F0"/>
<path d="M336.794 463.116C352.29 463.116 364.852 450.554 364.852 435.058C364.852 419.562 352.29 407 336.794 407C321.298 407 308.736 419.562 308.736 435.058C308.736 450.554 321.298 463.116 336.794 463.116Z" fill="#FFF8F0"/>
<path d="M336.795 463.116C318.643 463.116 303.919 477.84 303.919 495.991L275.861 467.933C294.012 467.933 308.736 453.209 308.736 435.057L336.795 463.116Z" fill="#FFF8F0"/>
<path d="M93.0581 524.052C108.554 524.052 121.116 511.489 121.116 495.993C121.116 480.497 108.554 467.935 93.0581 467.935C77.562 467.935 65 480.497 65 495.993C65 511.489 77.562 524.052 93.0581 524.052Z" fill="#FFF8F0"/>
<path d="M153.992 524.052C169.488 524.052 182.05 511.489 182.05 495.993C182.05 480.497 169.488 467.935 153.992 467.935C138.496 467.935 125.934 480.497 125.934 495.993C125.934 511.489 138.496 524.052 153.992 524.052Z" fill="#FFF8F0"/>
<path d="M214.926 524.052C230.422 524.052 242.984 511.489 242.984 495.993C242.984 480.497 230.422 467.935 214.926 467.935C199.43 467.935 186.868 480.497 186.868 495.993C186.868 511.489 199.43 524.052 214.926 524.052Z" fill="#FFF8F0"/>
<path d="M275.86 524.052C291.356 524.052 303.918 511.489 303.918 495.993C303.918 480.497 291.356 467.935 275.86 467.935C260.364 467.935 247.802 480.497 247.802 495.993C247.802 511.489 260.364 524.052 275.86 524.052Z" fill="#FFF8F0"/>
<path d="M336.794 524.052C352.29 524.052 364.852 511.489 364.852 495.993C364.852 480.497 352.29 467.935 336.794 467.935C321.298 467.935 308.736 480.497 308.736 495.993C308.736 511.489 321.298 524.052 336.794 524.052Z" fill="#FFF8F0"/>
<path d="M65.0073 432.633V493.567H121.124V432.633H65.0073Z" fill="#FFF8F0"/>
<path d="M153.991 407H93.0574V463.116H153.991V407Z" fill="#FFF8F0"/>
<path d="M308.747 432.636V493.57H364.863V432.636H308.747Z" fill="#FFF8F0"/>
<path d="M336.795 467.935H275.861V524.052H336.795V467.935Z" fill="#FFF8F0"/>
<path d="M157 877.904V859.013H161.514L168.279 867.949L170.874 871.92H171.178L170.98 868.108V859H175.216V877.904H170.702L163.738 868.876L161.342 865.328H161.064L161.236 868.796V877.904H157Z" fill="#FFF8F0"/>
<path d="M177.466 877.905V859.014H193.458V862.826H181.702V866.52H193.034V870.293H181.702V874.105H193.458V877.918H177.466V877.905Z" fill="#FFF8F0"/>
<path d="M195.299 877.905V859.014H206.631C210.496 859.014 212.575 860.655 212.575 863.607C212.575 865.951 211.33 867.645 208.18 867.87V868.122C211.674 868.373 213.369 870.121 213.369 872.662C213.369 875.879 211.396 877.905 207.16 877.905H195.299ZM199.522 866.52H206.154C207.703 866.52 208.352 865.99 208.352 864.693C208.352 863.396 207.677 862.826 206.101 862.826H199.535V866.52H199.522ZM199.522 874.105H206.657C208.378 874.105 209.08 873.576 209.08 872.053C209.08 870.557 208.378 870.028 206.657 870.028H199.522V874.105Z" fill="#FFF8F0"/>
<path d="M214.785 870.015V859.014H219.021V869.697C219.021 872.914 220.239 874.066 224.065 874.066C227.93 874.066 229.108 872.914 229.108 869.697V859.014H233.345V870.015C233.345 875.085 230.247 878.196 224.065 878.196C217.909 878.196 214.785 875.085 214.785 870.015Z" fill="#FFF8F0"/>
<path d="M235.476 877.905V859.014H239.713V874.105H250.965V877.918H235.476V877.905Z" fill="#FFF8F0"/>
<path d="M251.375 877.905L259.636 859.014H265.672L273.986 877.905H269.141L267.367 873.735H257.915L256.114 877.905H251.375ZM259.556 869.922H265.725L263.965 865.805L262.813 862.866H262.508L261.357 865.805L259.556 869.922Z" fill="#FFF8F0"/>
</g>
<defs>
<filter id="filter0_f_264_2093" x="-840.581" y="-481.242" width="1867.29" height="1637.39" filterUnits="userSpaceOnUse" color-interpolation-filters="sRGB">
<feFlood flood-opacity="0" result="BackgroundImageFix"/>
<feBlend mode="normal" in="SourceGraphic" in2="BackgroundImageFix" result="shape"/>
<feGaussianBlur stdDeviation="200" result="effect1_foregroundBlur_264_2093"/>
</filter>
<filter id="filter1_f_264_2093" x="-263.889" y="148.424" width="1211.1" height="1349.04" filterUnits="userSpaceOnUse" color-interpolation-filters="sRGB">
<feFlood flood-opacity="0" result="BackgroundImageFix"/>
<feBlend mode="normal" in="SourceGraphic" in2="BackgroundImageFix" result="shape"/>
<feGaussianBlur stdDeviation="200" result="effect1_foregroundBlur_264_2093"/>
</filter>
<filter id="filter2_f_264_2093" x="-472.695" y="-332.557" width="1376.14" height="1252.03" filterUnits="userSpaceOnUse" color-interpolation-filters="sRGB">
<feFlood flood-opacity="0" result="BackgroundImageFix"/>
<feBlend mode="normal" in="SourceGraphic" in2="BackgroundImageFix" result="shape"/>
<feGaussianBlur stdDeviation="200" result="effect1_foregroundBlur_264_2093"/>
</filter>
<filter id="filter3_f_264_2093" x="-511.899" y="-585.469" width="1066.39" height="1155.78" filterUnits="userSpaceOnUse" color-interpolation-filters="sRGB">
<feFlood flood-opacity="0" result="BackgroundImageFix"/>
<feBlend mode="normal" in="SourceGraphic" in2="BackgroundImageFix" result="shape"/>
<feGaussianBlur stdDeviation="200" result="effect1_foregroundBlur_264_2093"/>
</filter>
<clipPath id="clip0_264_2093">
<rect width="430" height="932" fill="white"/>
</clipPath>
</defs>
</svg>
