<svg width="200" height="200" viewBox="0 0 200 200" fill="none" xmlns="http://www.w3.org/2000/svg">
<g clip-path="url(#clip0_508_2049)">
<path d="M166.789 200H33.2093C14.8981 200 0 185.102 0 166.789V33.2111C0 14.8981 14.8981 0 33.2093 0H166.789C185.102 0 200 14.8981 200 33.2111V166.789C200 185.102 185.102 200 166.789 200ZM33.2093 10.5259C27.1959 10.5342 21.4315 12.9272 17.1802 17.1799C12.9289 21.4326 10.5379 27.1978 10.5315 33.2111V166.789C10.5379 172.803 12.9297 178.569 17.1822 182.822C21.4346 187.074 27.2006 189.467 33.2148 189.474H166.794C172.809 189.467 178.574 187.074 182.827 182.822C187.08 178.569 189.472 172.803 189.478 166.789V33.2111C189.472 27.1968 187.08 21.4307 182.827 17.1779C178.574 12.9251 172.809 10.5328 166.794 10.5259H33.2093Z" fill="white"/>
<path d="M164.969 3.49338H35.0315C17.6131 3.49338 3.49268 17.6138 3.49268 35.0323V164.969C3.49268 182.388 17.6131 196.508 35.0315 196.508H164.969C182.387 196.508 196.507 182.388 196.507 164.969V35.0323C196.507 17.6138 182.387 3.49338 164.969 3.49338Z" fill="white"/>
<path d="M196.507 153.149V148.89L195.93 153.24L196.507 153.149Z" fill="white"/>
<path d="M105.072 94.6144L111.53 58.6885L155.354 3.50327H153.022L36.1703 96.2089L56.6647 3.50327H33.3703C25.4483 3.50425 17.8509 6.65117 12.2486 12.2522C6.64614 17.8532 3.49733 25.4498 3.49438 33.3718V46.0551L32.9203 16.52L3.86476 171.355C4.72126 176.715 7.02655 181.738 10.5314 185.883L98.9999 74.47L105.072 94.6144Z" fill="#9105C6"/>
<path d="M196.507 153.149L195.928 153.239L196.507 148.889V59.0338L133.883 157.165L178.015 119.406L160.568 185.378L194.457 177.532C195.818 174.058 196.515 170.359 196.511 166.628L196.507 153.149Z" fill="#9105C6"/>
<path d="M132.328 173.133L147.428 161.596L148.472 136.967L131.306 120.55L127.111 94.8092L126.885 94.8889L126.746 94.0389C135.396 63.6222 135.615 46.6 135.615 46.6L112.9 20.1889L108.787 21.7111C108.787 21.7111 109.013 57.6185 105.6 88.4555C104.876 88.9167 104.418 89.213 104.418 89.213L101.009 90.6555C99.1574 50.7463 89.6389 33.7741 89.6389 33.7741L57.8685 21.7981L54.7203 25.1981C54.7203 25.1981 71.7296 56.7778 77.637 93.9222L74.0277 94.9407L68.2315 96.2148L58.4685 104.83L55.9592 104.5L41.8852 114.674L42.6352 124.781L41.7092 125.107L53.4352 173.896L50.6055 196.513H123.626L122.589 181.452L132.328 173.133Z" fill="#000002"/>
<path d="M130.857 92.5204C139.509 62.1037 139.728 45.0815 139.728 45.0815L137.398 24.4445L112.9 20.1852C112.9 20.1852 113.126 56.0926 109.713 86.9297C108.987 87.3908 108.531 87.6871 108.531 87.6871L105.122 89.1297C103.27 49.2204 93.7517 32.2482 93.7517 32.2482L82.3295 14.9278L57.8684 21.7926C57.8684 21.7926 75.9943 55.5186 81.8276 92.8408C80.5313 93.9852 79.6702 94.7667 79.6702 94.7667L77.7758 93.8815L68.2387 96.2093L62.5887 103.302L55.9665 104.494L46.0017 113.146L58.3165 178.47L65.3295 164.622L112.833 125.437C115.622 127.987 118.424 129.013 119.904 125.161C120.954 122.425 121.95 119.752 122.891 117.143L133.455 108.428L130.857 92.5204Z" fill="#FFCF06"/>
<path d="M151.541 160.074L97.5684 176.74L118.917 127.885L134.428 136.129L133.707 117.39L152.587 135.446L151.541 160.074Z" fill="#FFCF06"/>
<path d="M107.965 170.939L139.548 151.965L133.456 108.436C133.456 108.436 57.6852 156.097 58.2389 171.063C58.25 171.397 57.0963 181.708 55.4204 196.515H125.393L121.619 177.887L107.965 170.939Z" fill="#FFCF06"/>
<path d="M151.541 160.073L116.126 144.693L135.817 121.462L131.226 93.2803L45.8372 123.578L57.2668 174.738L54.5427 196.506H127.858L126.717 179.923L136.443 171.61L151.541 160.073Z" fill="#F0549E"/>
<path d="M90.387 173.22C90.255 173.221 90.1237 173.2 89.9981 173.159C89.6764 173.056 89.4089 172.829 89.2544 172.529C89.1 172.228 89.0709 171.879 89.174 171.557L95.3148 152.363C95.3715 152.186 95.4661 152.023 95.5922 151.887C95.7181 151.75 95.8726 151.643 96.0444 151.572L117.072 142.926C117.227 142.862 117.393 142.83 117.56 142.83C117.727 142.831 117.893 142.864 118.048 142.929C118.202 142.993 118.342 143.087 118.46 143.206C118.578 143.325 118.672 143.466 118.735 143.62C118.799 143.775 118.831 143.941 118.831 144.108C118.83 144.276 118.797 144.441 118.732 144.596C118.668 144.75 118.573 144.89 118.455 145.008C118.336 145.126 118.196 145.22 118.041 145.283L97.5685 153.704L91.6 172.335C91.5176 172.592 91.3557 172.816 91.1377 172.975C90.9198 173.134 90.6568 173.22 90.387 173.22Z" fill="#9105C6"/>
<path d="M126.678 180.644L89.6851 180.546C89.6425 180.546 89.6017 180.546 89.5592 180.546L57.6777 177.326C57.3414 177.292 57.0321 177.126 56.8182 176.864C56.6043 176.602 56.503 176.266 56.5369 175.93C56.5708 175.593 56.7371 175.284 56.999 175.07C57.2608 174.856 57.5969 174.755 57.9332 174.789L89.7536 178.004L126.685 178.102C127.023 178.102 127.347 178.236 127.586 178.475C127.825 178.714 127.959 179.038 127.959 179.376C127.959 179.714 127.825 180.038 127.586 180.277C127.347 180.516 127.023 180.65 126.685 180.65L126.678 180.644Z" fill="#9105C6"/>
<path d="M77.7779 93.881L94.4205 107.879L99.1186 146.774L85.2705 152.448L75.8149 119.281L62.5908 103.301L75.013 101.257L77.7779 93.881Z" fill="#FFCF06"/>
<path d="M62.5907 103.301L75.8148 119.28L83.9167 147.697L69.9111 150.199L63.6648 137.939L58.0574 122.934L49.7944 116.421L62.5907 103.301Z" fill="#FFCF06"/>
<path d="M99.1184 146.774L98.0647 138.044L88.8647 140.885L89.174 150.848L99.1184 146.774Z" fill="#000002"/>
<path d="M151.272 150.042L103.433 142.763C98.8315 138.063 88.8445 121.729 88.8445 121.729L135.417 119.029" fill="#FFCF06"/>
<path d="M97.8685 137.141L117.852 134.933L107.669 120.107L88.8481 121.73L97.8685 137.141Z" fill="#000002"/>
<path d="M135.933 143.816C135.831 143.816 135.729 143.803 135.63 143.779C135.301 143.698 135.019 143.491 134.843 143.202C134.668 142.913 134.614 142.567 134.694 142.238L137.778 129.646L134.517 124.413C134.352 124.126 134.305 123.786 134.385 123.466C134.466 123.145 134.667 122.868 134.948 122.693C135.229 122.518 135.566 122.46 135.89 122.529C136.213 122.598 136.497 122.79 136.681 123.064L140.224 128.755C140.314 128.899 140.374 129.06 140.4 129.227C140.427 129.395 140.42 129.566 140.38 129.731L137.17 142.837C137.104 143.115 136.946 143.363 136.721 143.54C136.497 143.718 136.219 143.815 135.933 143.816Z" fill="#9105C6"/>
<path d="M83.9148 148.971C83.6378 148.971 83.3685 148.88 83.1478 148.713C82.9268 148.546 82.7663 148.311 82.6907 148.045L74.6629 119.886L61.6074 104.112C61.4055 103.85 61.3131 103.52 61.35 103.191C61.3866 102.862 61.5496 102.561 61.8044 102.35C62.0592 102.139 62.3861 102.035 62.7159 102.061C63.0455 102.086 63.3526 102.238 63.5722 102.486L76.7963 118.467C76.9094 118.603 76.9928 118.761 77.0407 118.93L85.1426 147.345C85.1968 147.535 85.2061 147.735 85.17 147.929C85.1337 148.123 85.0529 148.306 84.9339 148.463C84.8148 148.621 84.6607 148.749 84.4839 148.836C84.307 148.924 84.1122 148.97 83.9148 148.969V148.971Z" fill="#9105C6"/>
<path d="M95.9018 121.436C95.5905 121.435 95.2903 121.321 95.0575 121.114C94.8249 120.907 94.6758 120.622 94.6388 120.313L93.2166 108.558L76.8277 95.7597C76.6958 95.6568 76.5855 95.5288 76.5029 95.3831C76.4205 95.2375 76.3675 95.0769 76.347 94.9108C76.3057 94.5755 76.3994 94.2371 76.6073 93.9708C76.8153 93.7044 77.1207 93.5314 77.4562 93.4901C77.7916 93.4488 78.1297 93.5423 78.3962 93.7505L95.2055 106.875C95.3379 106.978 95.4483 107.106 95.5307 107.252C95.6129 107.399 95.6655 107.56 95.6851 107.726L97.1666 120.008C97.207 120.343 97.1125 120.681 96.9042 120.947C96.696 121.213 96.3907 121.385 96.0555 121.426C96.0044 121.432 95.9531 121.435 95.9018 121.436Z" fill="#9105C6"/>
<path d="M63.6629 139.214C63.4031 139.214 63.1496 139.135 62.9365 138.986C62.7233 138.838 62.5607 138.628 62.4703 138.385L55.2055 118.94C55.087 118.624 55.0994 118.273 55.2394 117.965C55.3796 117.658 55.6361 117.419 55.9528 117.3C56.2692 117.182 56.6198 117.194 56.9274 117.334C57.2348 117.475 57.4741 117.731 57.5926 118.048L64.8574 137.492C64.9757 137.808 64.9644 138.157 64.8255 138.465C64.6866 138.772 64.4318 139.011 64.1166 139.131C63.9718 139.187 63.8179 139.215 63.6629 139.214Z" fill="#9105C6"/>
<path d="M83.8482 148.471L81.6296 139.678L71.2185 140.102L70.3037 150.236L83.8482 148.471Z" fill="#000002"/>
<path d="M166.789 0H33.2093C14.8981 0 0 14.8981 0 33.2111V166.789C0 185.102 14.8981 200 33.2093 200H166.789C185.102 200 200 185.102 200 166.789V33.2111C200 14.8981 185.102 0 166.789 0ZM194.735 164.857C194.735 168.782 193.963 172.668 192.463 176.294C190.961 179.919 188.761 183.214 185.985 185.989C183.211 188.765 179.917 190.965 176.291 192.469C172.666 193.97 168.78 194.743 164.856 194.743H35.1426C27.218 194.743 19.618 191.594 14.0145 185.991C8.41098 180.388 5.26296 172.787 5.26296 164.863V35.1426C5.26296 27.218 8.41098 19.618 14.0145 14.0145C19.618 8.41096 27.218 5.26294 35.1426 5.26294H164.856C172.78 5.26294 180.38 8.41096 185.983 14.0145C191.587 19.618 194.735 27.218 194.735 35.1426V164.857Z" fill="white"/>
</g>
<defs>
<clipPath id="clip0_508_2049">
<rect width="200" height="200" fill="white"/>
</clipPath>
</defs>
</svg>
