<svg width="32" height="32" viewBox="0 0 32 32" fill="none" xmlns="http://www.w3.org/2000/svg">
<path d="M11 21L6 26" stroke="white" stroke-width="2.5" stroke-linecap="round" stroke-linejoin="round"/>
<path d="M19.293 3.70696L11.5001 11.4998C11.5001 11.4998 8.03209 9.76585 4.32524 12.7562C4.21578 12.8443 4.12608 12.9544 4.06197 13.0795C3.99787 13.2045 3.96079 13.3417 3.95314 13.482C3.9455 13.6223 3.96746 13.7627 4.01761 13.8939C4.06775 14.0252 4.14495 14.1445 4.24419 14.244L17.7313 27.731C17.8323 27.8323 17.9538 27.9107 18.0877 27.9609C18.2217 28.0111 18.3648 28.032 18.5075 28.0222C18.6502 28.0123 18.7891 27.9719 18.9148 27.9038C19.0405 27.8356 19.1502 27.7412 19.2363 27.6271C20.2854 26.2326 21.9333 23.3662 20.5001 20.4998L28.293 12.707C28.4805 12.5194 28.5859 12.2651 28.5859 11.9998C28.5859 11.7346 28.4805 11.4803 28.293 11.2927L20.7072 3.70696C20.5197 3.51942 20.2653 3.41406 20.0001 3.41406C19.7349 3.41406 19.4805 3.51942 19.293 3.70696V3.70696Z" stroke="white" stroke-width="2.5" stroke-linecap="round" stroke-linejoin="round"/>
</svg>
